<?xml version="1.0" standalone="no"?>
<!DOCTYPE svg PUBLIC "-//W3C//DTD SVG 1.1//EN" "http://www.w3.org/Graphics/SVG/1.1/DTD/svg11.dtd" >
<svg>
<metadata>
Created by FontForge 20090914 at Sat Jun  5 18:51:11 2021
 By www-data
Copyright (c) 2002, 2005 Parachute&#194;&#168;, www.parachute.gr.  All rights reserved.
</metadata>
<defs>
<font id="PFDinTextCompPro-Medium" horiz-adv-x="829" >
  <font-face 
    font-family="PF Din Text Comp Pro Medium"
    font-weight="500"
    font-stretch="normal"
    units-per-em="2048"
    panose-1="2 0 5 0 0 0 0 2 0 4"
    ascent="1536"
    descent="-512"
    x-height="1012"
    cap-height="1425"
    bbox="-53 -423.999 2007 1825"
    underline-thickness="102"
    underline-position="-102"
    unicode-range="U+000D-U+FB02"
  />
<missing-glyph horiz-adv-x="748" 
d="M68 0v1365h544v-1365h-544zM136 68h408v1229h-408v-1229z" />
    <glyph glyph-name="uniFB01" unicode="fi" horiz-adv-x="903" 
d="M27 840l-0.00195312 171.999h96v170c0 54.667 9.16699 102 27.5 142s42.833 73 73.5 99s66.5 45.167 107.5 57.5s84.167 18.5 129.5 18.5c62.667 0 119.667 -7.83301 171 -23.5s101.333 -43.167 150 -82.5l-116 -170c-32.667 27.333 -66.167 45 -100.5 53
s-63.166 12 -86.499 12c-27.333 0 -49.5 -3.66699 -66.5 -11s-30.667 -17.166 -41 -29.499s-17.166 -26 -20.499 -41s-5 -29.5 -5 -43.5v-151h467v-1012h-221v840h-246v-840h-223v840h-96z" />
    <glyph glyph-name="uniFB02" unicode="fl" horiz-adv-x="956" 
d="M27 840l0.000976562 171.997h96v170c0 54.667 7.83301 102 23.5 142s37.834 73.333 66.501 100s62.5 46.5 101.5 59.5s81.5 19.5 127.5 19.5c36.667 0 88.167 -3.66699 154.5 -11s138.5 -26.666 216.5 -57.999l-2 -1133c0 -39.333 5.83301 -67.666 17.5 -84.999
s33.167 -26 64.5 -26h25v-202h-41c-49.333 0 -91.833 4.33301 -127.5 13s-65.334 24 -89.001 46s-41.334 51 -53.001 87s-17.5 80.667 -17.5 134v1006c-23.333 6.66699 -43.5 11.334 -60.5 14.001s-34.5 4 -52.5 4c-27.333 0 -49.5 -3.66699 -66.5 -11
s-30.333 -17.5 -40 -30.5s-16.167 -27.667 -19.5 -44s-5 -32.833 -5 -49.5v-145h160v-172h-160v-840h-223v840h-96z" />
    <glyph glyph-name=".notdef" horiz-adv-x="748" 
d="M68 0v1365h544v-1365h-544zM136 68h408v1229h-408v-1229z" />
    <glyph glyph-name="glyph1" horiz-adv-x="2048" 
 />
    <glyph glyph-name="glyph1" horiz-adv-x="2048" 
 />
    <glyph glyph-name="uni000D" unicode="&#xd;" horiz-adv-x="2048" 
 />
    <glyph glyph-name="space" unicode=" " horiz-adv-x="419" 
 />
    <glyph glyph-name="exclam" unicode="!" horiz-adv-x="516" 
d="M147 1425h220l-17 -1036h-184zM152 0v223h213v-223h-213z" />
    <glyph glyph-name="quotedbl" unicode="&#x22;" horiz-adv-x="573" 
d="M80 1004v421h156v-421h-156zM340 1004v421h158v-421h-158z" />
    <glyph glyph-name="numbersign" unicode="#" 
d="M10 442v152h144l47 256h-115v151h141l78 429h156l-80 -429h162l78 429h153l-80 -429h119v-151h-145l-45 -256h118v-152h-147l-80 -442h-154l80 442h-161l-78 -442h-156l82 442h-117zM307 594h162l47 256h-162z" />
    <glyph glyph-name="dollar" unicode="$" 
d="M63 334l221.996 42.998c1.33301 -44 8.83301 -82.333 22.5 -115s38.167 -53 73.5 -61v436c-66.667 28.667 -120.167 57.667 -160.5 87s-71.5 60.333 -93.5 93s-36.333 67.834 -43 105.501s-10 79.167 -10 124.5c0 106.667 24.5 195.334 73.5 266.001
s126.833 111.667 233.5 123v149h76v-147c60 -2.66699 110.167 -15 150.5 -37s72.333 -49.333 96 -82s40.334 -68.167 50.001 -106.5s14.5 -75.166 14.5 -110.499l-217 -51c0 45.333 -6.83301 83.5 -20.5 114.5s-38.167 50.167 -73.5 57.5v-379
c66.667 -30 120.5 -59.333 161.5 -88s72.833 -59.834 95.5 -93.501s37.334 -71.167 44.001 -112.5s10 -89.333 10 -144c0 -60 -5.16699 -115 -15.5 -165s-27.666 -93.167 -51.999 -129.5s-56.333 -65 -96 -86s-88.834 -32.833 -147.501 -35.5v-170h-76v170
c-56 2.66699 -104.167 13.5 -144.5 32.5s-73.166 43.833 -98.499 74.5s-44.166 66.167 -56.499 106.5s-18.5 83.833 -18.5 130.5zM292.996 1049c0 -35.333 4.33301 -65.667 13 -91s33.667 -50.333 75 -75v338c-36.667 -10.667 -60.5 -33.5 -71.5 -68.5
s-16.5 -69.5 -16.5 -103.5zM456.996 200.997c22 4 39 12.498 51 25.498s21.167 28.667 27.5 47s10.5 38.333 12.5 60s3 44.834 3 69.501c0 54.667 -6.16699 95.334 -18.5 122.001s-37.5 51.667 -75.5 75v-399z" />
    <glyph glyph-name="percent" unicode="%" horiz-adv-x="1290" 
d="M55 754v493c0 60 20.833 106.5 62.5 139.5s91.167 49.5 148.5 49.5c60 0 110.167 -16.5 150.5 -49.5s60.5 -79.5 60.5 -139.5v-493c0 -60 -20.5 -106.167 -61.5 -138.5s-90.833 -48.5 -149.5 -48.5s-108.5 16.167 -149.5 48.5s-61.5 78.5 -61.5 138.5zM213 762
c0 -12 4.50195 -23.167 13.502 -33.5s22.167 -15.5 39.5 -15.5c15.333 0 27.333 5 36 15s13 21.333 13 34v477c0 12 -4.33301 23.167 -13 33.5s-21.334 15.5 -38.001 15.5s-29.334 -5.16699 -38.001 -15.5s-13 -21.5 -13 -33.5v-477zM254.002 -35l643 1497h135l-643 -1497
h-135zM811.002 180v494c0 60 20.833 106.333 62.5 139s91.167 49 148.5 49c60 0 110.167 -16.333 150.5 -49s60.5 -79 60.5 -139v-494c0 -60 -20.5 -106 -61.5 -138s-90.833 -48 -149.5 -48s-108.5 16 -149.5 48s-61.5 78 -61.5 138zM969.002 188
c0 -12 4.33398 -23.167 13.001 -33.5s22 -15.5 40 -15.5c15.333 0 27.333 5.16699 36 15.5s13 21.5 13 33.5v478c0 12 -4.5 23.167 -13.5 33.5s-21.5 15.5 -37.5 15.5c-16.667 0 -29.334 -5.16699 -38.001 -15.5s-13 -21.5 -13 -33.5v-478z" />
    <glyph glyph-name="ampersand" unicode="&#x26;" horiz-adv-x="983" 
d="M84 362c0 82 16.999 154.829 50.999 218.496s82 124.834 144 183.501l-37 65c-20.667 38 -39.167 82 -55.5 132s-24.5 101.667 -24.5 155c0 45.333 6.83301 87.333 20.5 126s33.167 72.334 58.5 101.001s56 51.334 92 68.001s76 25 120 25
c75.333 0 139.5 -14.667 192.5 -44s95.167 -79 126.5 -149l-182 -92c-12 31.333 -29 54.166 -51 68.499s-46 21.5 -72 21.5c-38 0 -64.167 -13.667 -78.5 -41s-21.5 -56 -21.5 -86c0 -31.333 7.83301 -67.5 23.5 -108.5s36.5 -85.5 62.5 -133.5l227 -403
c8 24.667 14.167 52 18.5 82s7.16602 61.333 8.49902 94h192c-1.33301 -61.333 -9.83301 -125.833 -25.5 -193.5s-37.167 -128.167 -64.5 -181.5l156 -270h-244l-53 92c-42 -44 -86.333 -72.333 -133 -85s-94.667 -19 -144 -19c-45.333 0 -86.666 8.83301 -123.999 26.5
s-69.666 42.834 -96.999 75.501s-48.5 72.334 -63.5 119.001s-22.5 97.667 -22.5 153zM290.999 370.996c0 -50.667 11.834 -94.502 35.501 -131.502s57.5 -55.5 101.5 -55.5c27.333 0 54 6.5 80 19.5s47.667 29.833 65 50.5l-192 332
c-28.667 -35.333 -50.834 -70.166 -66.501 -104.499s-23.5 -71.166 -23.5 -110.499z" />
    <glyph glyph-name="quotesingle" unicode="'" horiz-adv-x="380" 
d="M117 1004v421h157v-421h-157z" />
    <glyph glyph-name="parenleft" unicode="(" horiz-adv-x="518" 
d="M94 627c0 84.667 7.16895 166.168 21.502 244.501s34.166 152.666 59.499 222.999s54.666 137.666 87.999 201.999s69.333 124.5 108 180.5l127 -62c-32.667 -57.333 -61.667 -118 -87 -182s-47 -129.5 -65 -196.5s-31.667 -134.667 -41 -203s-14 -134.5 -14 -198.5
c0 -69.333 4.66699 -139.666 14 -210.999s23 -140.666 41 -207.999s39.167 -132.833 63.5 -196.5s52.5 -122.834 84.5 -177.501l-111 -71c-82 117.333 -150.667 247.333 -206 390s-83 298 -83 466z" />
    <glyph glyph-name="parenright" unicode=")" horiz-adv-x="518" 
d="M94 1415l125 61.9971c38 -56 73.833 -116.167 107.5 -180.5s63.167 -131.666 88.5 -201.999s45.5 -144.666 60.5 -222.999s22.5 -159.833 22.5 -244.5c0 -168 -28 -323.333 -84 -466s-125 -272.667 -207 -390l-109 71c30 54.667 57.667 113.834 83 177.501
s46.833 129.167 64.5 196.5s31.334 136.5 41.001 207.5s14.5 141.5 14.5 211.5c0 64 -4.83301 130.167 -14.5 198.5s-23.334 136 -41.001 203s-39.5 132.5 -65.5 196.5s-54.667 124.667 -86 182z" />
    <glyph glyph-name="asterisk" unicode="*" horiz-adv-x="763" 
d="M49 1122l49 142l217 -90l-20 249h154l-21 -247l215 88l51 -142l-231 -61l160 -195l-125 -86l-125 209l-129 -211l-123 88l155 195z" />
    <glyph glyph-name="plus" unicode="+" 
d="M29 518v176h299v324h172v-324h299v-176h-299v-321h-172v321h-299z" />
    <glyph glyph-name="comma" unicode="," horiz-adv-x="438" 
d="M98 -281l60 269h-54v258h230v-252l-113 -275h-123z" />
    <glyph glyph-name="hyphen" unicode="-" horiz-adv-x="747" 
d="M100 479v193h570v-193h-570z" />
    <glyph glyph-name="period" unicode="." horiz-adv-x="432" 
d="M100 0v248h230v-248h-230z" />
    <glyph glyph-name="slash" unicode="/" horiz-adv-x="559" 
d="M6 -86l381 1571h166l-381 -1571h-166z" />
    <glyph glyph-name="zero" unicode="0" 
d="M109 289l0.000976562 844c0 48 8.16699 91 24.5 129s38.5 70 66.5 96s60.667 45.833 98 59.5s78 20.5 122 20.5c91.333 0 165.666 -26.667 222.999 -80s86 -128.333 86 -225v-844c0 -48 -8.16699 -90.833 -24.5 -128.5s-38.5 -69.334 -66.5 -95.001
s-60.833 -45 -98.5 -58s-77.5 -19.5 -119.5 -19.5c-44 0 -84.667 6.5 -122 19.5s-70 32.333 -98 58s-50.167 57.334 -66.5 95.001s-24.5 80.5 -24.5 128.5zM326.001 281c0 -27.333 8.83301 -48.833 26.5 -64.5s40.167 -23.5 67.5 -23.5c26 0 47.5 7.83301 64.5 23.5
s25.5 37.167 25.5 64.5v860c0 27.333 -8.5 48.833 -25.5 64.5s-38.5 23.5 -64.5 23.5c-27.333 0 -49.833 -7.83301 -67.5 -23.5s-26.5 -37.167 -26.5 -64.5v-860z" />
    <glyph glyph-name="one" unicode="1" 
d="M209 1022v238l207 165h207v-1425h-220v1178z" />
    <glyph glyph-name="two" unicode="2" 
d="M94 1055c0 121.333 29.3311 215.499 87.998 282.499s137.334 100.5 236.001 100.5c113.333 0 194.5 -30.5 243.5 -91.5s73.5 -142.5 73.5 -244.5c1.33301 -62.667 -5.16699 -118.667 -19.5 -168s-35.833 -102 -64.5 -158l-289 -567h359v-209h-615v193l181.5 347
l179.5 347c19.333 35.333 31.333 70.333 36 105s7 71.334 7 110.001c0 12 -1 25.5 -3 40.5s-6.5 28.667 -13.5 41s-16.5 23 -28.5 32s-28.333 13.5 -49 13.5c-31.333 -1.33301 -56.666 -16.333 -75.999 -45s-29 -80 -29 -154z" />
    <glyph glyph-name="three" unicode="3" 
d="M84 352l218.999 26.999c-6.66699 -68 -0.166992 -115.667 19.5 -143s46.5 -41 80.5 -41c24.667 0 47.667 8.5 69 25.5s32 48.5 32 94.5v193c0 48 -11 82.167 -33 102.5s-52.667 30.5 -92 30.5h-62v188h72c39.333 0 69.333 9.66699 90 29s31 51.333 31 96v158
c0 27.333 -6.16699 53.333 -18.5 78s-36.166 37 -71.499 37c-34 0 -61 -14 -81 -42s-30 -75 -30 -141l-217 29c2.66699 110.667 34 199.167 94 265.5s141.333 99.5 244 99.5c56 0 103.167 -9 141.5 -27s69 -41.667 92 -71s39.667 -62.666 50 -99.999s15.5 -75.333 15.5 -114
v-112c0 -27.333 -1 -54.333 -3 -81s-6.83301 -51.667 -14.5 -75s-19.334 -44.833 -35.001 -64.5s-37.167 -36.5 -64.5 -50.5v-10c48 -22 79.5 -53.833 94.5 -95.5s22.5 -88.167 22.5 -139.5l-2 -164c0 -113.333 -29.667 -199.333 -89 -258s-139 -88 -239 -88
c-116 0 -199.167 31.667 -249.5 95s-72.166 153 -65.499 269z" />
    <glyph glyph-name="four" unicode="4" 
d="M47 213v186l303 1026h215l-295 -1007h195v323h215v-323h90v-205h-90v-213h-215v213h-418z" />
    <glyph glyph-name="five" unicode="5" 
d="M96 336l212.998 34.998v-29c0 -53.333 8.16699 -91.166 24.5 -113.499s42.5 -33.5 78.5 -33.5c24.667 0 46.167 8.16699 64.5 24.5s28.833 47.5 31.5 93.5v338c0 58.667 -29.333 88 -88 88c-22 0 -42.833 -5.66699 -62.5 -17s-35.167 -30.666 -46.5 -57.999h-184v761h594
v-202h-393v-344c1.33301 0 2.33301 -0.333008 3 -1s2.33398 -1 5.00098 -1c18 19.333 40.833 33.333 68.5 42s54.5 13 80.5 13c87.333 0 149.833 -24.333 187.5 -73s56.5 -109.667 56.5 -183v-295c0 -135.333 -26.167 -234.666 -78.5 -297.999s-133.166 -95 -242.499 -95
c-108 0 -187 30.667 -237 92s-75 146.666 -75 255.999z" />
    <glyph glyph-name="six" unicode="6" 
d="M111 283l-0.000976562 182c0 56 3 106.167 9 150.5s16.667 86.166 32 125.499l262 684h231l-231 -606l8 -8c24.667 16.667 54.667 25 90 25c66.667 0 120.167 -21.833 160.5 -65.5s60.5 -112.834 60.5 -207.501v-250c0 -46.667 -6.5 -89.667 -19.5 -129
s-32.5 -73.666 -58.5 -102.999s-58.667 -52.166 -98 -68.499s-85.666 -24.5 -138.999 -24.5c-94 0 -168.667 26.5 -224 79.5s-83 124.833 -83 215.5zM327.999 279c0 -27.333 8.83301 -48.166 26.5 -62.499s39.5 -21.5 65.5 -21.5c27.333 0 49.833 7.16699 67.5 21.5
s26.5 35.166 26.5 62.499v292c0 27.333 -8.83301 48.166 -26.5 62.499s-39.5 21.5 -65.5 21.5c-31.333 0 -54.833 -10.167 -70.5 -30.5s-23.5 -44.166 -23.5 -71.499v-274z" />
    <glyph glyph-name="seven" unicode="7" 
d="M104 1069v356h629v-186l-360 -1239h-217l348 1223h-205v-154h-195z" />
    <glyph glyph-name="eight" unicode="8" 
d="M104 322v102c0 32.667 1.16699 64.667 3.5 96s7.16602 61 14.499 89s18.5 53.333 33.5 76s35.5 42 61.5 58c-23.333 9.33301 -42.166 23.333 -56.499 42s-25.5 38.667 -33.5 60s-13.5 42.5 -16.5 63.5s-4.5 39.167 -4.5 54.5v163c0 94 28.333 169.5 85 226.5
s131.667 85.5 225 85.5c100 0 176.5 -28.333 229.5 -85s79.5 -139 79.5 -247v-105c0 -52 -7.5 -101.167 -22.5 -147.5s-43.833 -80.833 -86.5 -103.5c0 -1.33301 0.666992 -2 2 -2c26 -16.667 46.167 -35.167 60.5 -55.5s25 -42.833 32 -67.5s11.5 -51.667 13.5 -81
s3 -61 3 -95v-123c0 -58.667 -7.83301 -109.167 -23.5 -151.5s-37.5 -77.5 -65.5 -105.5s-60.833 -48.5 -98.5 -61.5s-78.167 -19.5 -121.5 -19.5c-54.667 0 -101.834 8.16699 -141.501 24.5s-72.167 39.5 -97.5 69.5s-44.166 65.5 -56.499 106.5s-18.5 85.5 -18.5 133.5z
M322 281c0 -26 9.16699 -47.167 27.5 -63.5s40.5 -24.5 66.5 -24.5c27.333 0 49.5 8.16699 66.5 24.5s25.5 37.5 25.5 63.5v270c0 28.667 -6.5 54.667 -19.5 78s-37.167 35 -72.5 35s-59.833 -11.667 -73.5 -35s-20.5 -49.333 -20.5 -78v-270zM322 920
c0 -26 9.16699 -46.833 27.5 -62.5s40.5 -23.5 66.5 -23.5c27.333 0 49.5 7.83301 66.5 23.5s25.5 36.5 25.5 62.5v204c0 30 -7.16699 55.333 -21.5 76s-37.833 31 -70.5 31c-24.667 0 -46.5 -7.83301 -65.5 -23.5s-28.5 -36.5 -28.5 -62.5v-225z" />
    <glyph glyph-name="nine" unicode="9" 
d="M104 864v248c0 46.667 6.5 89.667 19.5 129s32.5 73.833 58.5 103.5s58.833 52.667 98.5 69s86.834 24.5 141.501 24.5c101.333 0 177.833 -26.667 229.5 -80s77.5 -125 77.5 -215v-182c0 -108 -13.667 -200.333 -41 -277l-262 -684h-233l231 606l-8 8
c-24.667 -16.667 -54.667 -24.667 -90 -24c-66.667 0 -120.334 20.167 -161.001 60.5s-61 111.5 -61 213.5zM324 854c0 -27.333 8.83301 -48.5 26.5 -63.5s40.167 -22.5 67.5 -22.5c31.333 0 54.5 10.5 69.5 31.5s22.5 45.167 22.5 72.5v275
c0 27.333 -8.5 48.166 -25.5 62.499s-39.167 21.5 -66.5 21.5c-26 0 -48.167 -7.16699 -66.5 -21.5s-27.5 -35.166 -27.5 -62.499v-293z" />
    <glyph glyph-name="colon" unicode=":" horiz-adv-x="432" 
d="M100 0v248h230v-248h-230zM100 571v248h230v-248h-230z" />
    <glyph glyph-name="semicolon" unicode=";" horiz-adv-x="438" 
d="M98 -281l60 269h-54v258h230v-252l-113 -275h-123zM104 571v248h230v-248h-230z" />
    <glyph glyph-name="less" unicode="&#x3c;" 
d="M31 537v147l766 383v-203l-555 -254l553 -252v-204z" />
    <glyph glyph-name="equal" unicode="=" 
d="M29 352v178h770v-178h-770zM29 692v178h770v-178h-770z" />
    <glyph glyph-name="greater" unicode="&#x3e;" 
d="M33 864v203l766 -383v-147l-762 -383v204l551 252z" />
    <glyph glyph-name="question" unicode="?" horiz-adv-x="806" 
d="M63 1073c2.66699 121.333 36.168 212.503 100.501 273.503s147.833 91.5 250.5 91.5c120 0 207 -31.5 261 -94.5s81 -153.167 81 -270.5c0 -35.333 -1.33301 -66 -4 -92s-7.16699 -49.5 -13.5 -70.5s-14.333 -41.5 -24 -61.5s-21.167 -42.333 -34.5 -67l-98 -172
c-10.667 -18 -19.167 -36.5 -25.5 -55.5s-9.5 -42.167 -9.5 -69.5v-108h-217v164c0 30 4.66699 58.333 14 85s21.666 52 36.999 76l78.5 132.5c19.667 33.667 34.667 62.667 45 87s16.833 47.166 19.5 68.499s4 47.666 4 78.999c0 15.333 -2 32.166 -6 50.499
s-10.5 35.333 -19.5 51s-21.333 29 -37 40s-35.5 16.5 -59.5 16.5c-32.667 0 -61.667 -13.333 -87 -40s-38 -72.667 -38 -138zM332.001 0.00292969v223h211v-223h-211z" />
    <glyph glyph-name="at" unicode="@" horiz-adv-x="1601" 
d="M123 688c0 112 15.333 215.172 46 309.505s75.667 175.5 135 243.5s132.666 121.5 219.999 160.5s187 58.5 299 58.5c110.667 0 207.334 -17.333 290.001 -52s151.334 -82.834 206.001 -144.501s95.334 -133.667 122.001 -216s40 -170.833 40 -265.5
c0 -92.667 -10.333 -171 -31 -235s-48.334 -116.167 -83.001 -156.5s-74.167 -69.5 -118.5 -87.5s-91.166 -27 -140.499 -27c-10.667 0 -24.667 2.16699 -42 6.5s-35.5 11.166 -54.5 20.499s-36.667 21.5 -53 36.5s-28.5 32.833 -36.5 53.5h-4
c-22 -32.667 -52.167 -57.834 -90.5 -75.501s-77.833 -26.5 -118.5 -26.5c-38 0 -69.833 6.83301 -95.5 20.5s-46.334 31.667 -62.001 54s-26.5 48.166 -32.5 77.499s-9 60 -9 92c0 32.667 4.5 64.667 13.5 96s23.667 59.333 44 84s46.166 44.5 77.499 59.5
s69.666 22.5 114.999 22.5h106v82c0 26 -6.16699 46.167 -18.5 60.5s-34.166 21.5 -65.499 21.5c-18 0 -35.333 -5.83301 -52 -17.5s-28.667 -32.5 -36 -62.5l-164 49c18 62.667 50.167 111.334 96.5 146.001s103.166 52 170.499 52c79.333 0 141.166 -18 185.499 -54
s66.5 -99 66.5 -189v-350c0 -32.667 8.5 -57.667 25.5 -75s34.833 -26 53.5 -26c23.333 0 46 4.5 68 13.5s41.833 26.5 59.5 52.5s31.667 61.5 42 106.5s15.5 103.5 15.5 175.5c0 79.333 -11 151.166 -33 215.499s-53.833 119.333 -95.5 165s-92.5 80.834 -152.5 105.501
s-127.667 37 -203 37c-94 0 -175.5 -16.5 -244.5 -49.5s-125.333 -77.833 -169 -134.5s-76 -122.167 -97 -196.5s-31.5 -153.166 -31.5 -236.499c0 -98 11.833 -186.333 35.5 -265s58.167 -145.334 103.5 -200.001s101.333 -96.334 168 -125.001s143 -43 229 -43
c64 0 122 6.16699 174 18.5s109.333 36.166 172 71.499l66 -143c-62.667 -30 -127.5 -54.167 -194.5 -72.5s-135.833 -27.5 -206.5 -27.5c-108 0 -205.667 16 -293 48s-162.166 80.5 -224.499 145.5s-110.166 146.5 -143.499 244.5s-50 214 -50 348zM690 547.005
c0 -28.667 7.5 -51.167 22.5 -67.5s36.833 -24.5 65.5 -24.5c27.333 0 48.833 9.5 64.5 28.5s23.5 44.167 23.5 75.5v103h-73c-27.333 0 -51.333 -8.33301 -72 -25s-31 -46.667 -31 -90z" />
    <glyph glyph-name="A" unicode="A" horiz-adv-x="864" 
d="M23 0l143.5 712.5l142.5 712.5h246l289 -1425h-226l-55 297h-262l-27.5 -148.5c-9 -49.667 -17.5 -99.167 -25.5 -148.5h-225zM334 504h193.998l-92 592h-10c-13.333 -98 -27.666 -196 -42.999 -294s-31.666 -197.333 -48.999 -298z" />
    <glyph glyph-name="B" unicode="B" horiz-adv-x="880" 
d="M106 0l-0.000976562 1425h312c125.333 0 216.333 -33 273 -99s85 -162 85 -288c0 -65.333 -11.167 -122.5 -33.5 -171.5s-61.5 -85.833 -117.5 -110.5v-11c62.667 -20.667 105.5 -59.5 128.5 -116.5s34.5 -122.5 34.5 -196.5c0 -148.667 -31.667 -257.834 -95 -327.501
s-160.666 -104.5 -291.999 -104.5h-295zM327.999 207.001l87.999 -0.000976562c35.333 0 63.5 6.5 84.5 19.5s37.333 30.333 49 52s19.334 47.667 23.001 78s5.5 61.833 5.5 94.5c0 66.667 -12.333 116.334 -37 149.001s-67.667 49 -129 49h-84v-442zM327.998 850h71
c57.333 0 99.333 15.667 126 47s40 77 40 137c0 65.333 -13 112.5 -39 141.5s-69 43.5 -129 43.5h-69v-369z" />
    <glyph glyph-name="C" unicode="C" horiz-adv-x="831" 
d="M94 338l0.00195312 710.999c0 53.333 5.83301 103.5 17.5 150.5s31.167 88.167 58.5 123.5s63.166 63.333 107.499 84s98.5 31 162.5 31c58.667 0 109.167 -8.16699 151.5 -24.5s77.5 -39.333 105.5 -69s48.5 -64.5 61.5 -104.5s19.5 -84 19.5 -132l-215 -55
c0 52 -9.83301 94.333 -29.5 127s-51.5 49 -95.5 49c-26 0 -47.167 -5.5 -63.5 -16.5s-28.833 -25 -37.5 -42s-14.834 -35.5 -18.501 -55.5s-5.5 -38.667 -5.5 -56v-723c0 -13.333 1.5 -28.333 4.5 -45s8.83301 -32.167 17.5 -46.5s20.834 -26.166 36.501 -35.499
s35.834 -14 60.501 -14c82 0 123.667 58.667 125 176c36.667 -6.66699 73.5 -12.5 110.5 -17.5l110.5 -15.5c-2.66699 -108 -32.334 -193.333 -89.001 -256s-140.334 -94 -251.001 -94c-117.333 0 -204 29.667 -260 89s-84 146.333 -84 261z" />
    <glyph glyph-name="D" unicode="D" horiz-adv-x="890" 
d="M106 0l0.00195312 1425h355c84.667 0 151.5 -14.667 200.5 -44s83.167 -78.666 102.5 -147.999c15.333 -50.667 23.166 -120 23.499 -208s0.5 -191.333 0.5 -310c0 -117.333 -0.666992 -218.333 -2 -303s-10 -151.667 -26 -201c-26 -80.667 -67.333 -136 -124 -166
s-121.334 -45 -194.001 -45h-336zM328.002 208.999l94 -0.000976562c54.667 0 92.167 14.333 112.5 43s30.5 70.334 30.5 125.001v674c0 52 -9.83301 92.667 -29.5 122s-57.5 44 -113.5 44h-94v-1008z" />
    <glyph glyph-name="E" unicode="E" horiz-adv-x="778" 
d="M106 0v1425h633v-208h-411v-388h358v-211h-358v-409h411v-209h-633z" />
    <glyph glyph-name="F" unicode="F" horiz-adv-x="778" 
d="M106 0v1425h633v-208h-411v-388h358v-211h-358v-618h-222z" />
    <glyph glyph-name="G" unicode="G" horiz-adv-x="874" 
d="M104 338v711c0 53.333 6.16699 103.5 18.5 150.5s32.5 88.167 60.5 123.5s63.833 63.333 107.5 84s97.167 31 160.5 31c116 0 201.167 -30.167 255.5 -90.5s81.5 -138.833 81.5 -235.5v-16l-215 -43c0 52 -9.83301 94.333 -29.5 127s-51.167 49 -94.5 49
c-26 0 -47.333 -5.5 -64 -16.5s-29.334 -25 -38.001 -42s-14.667 -35.5 -18 -55.5s-5 -38.667 -5 -56v-723c0 -15.333 2 -29.666 6 -42.999c4 -24.667 13.833 -47.167 29.5 -67.5s43.167 -30.5 82.5 -30.5s71 10.167 95 30.5s36 48.166 36 83.499v281h-131v192h351v-454
c0 -112 -31.667 -196.667 -95 -254s-146.333 -86 -249 -86c-117.333 0 -204.166 29.667 -260.499 89s-84.5 146.333 -84.5 261z" />
    <glyph glyph-name="H" unicode="H" horiz-adv-x="907" 
d="M106 0v1425h220v-596h256v596h219v-1425h-219v623h-256v-623h-220z" />
    <glyph glyph-name="I" unicode="I" horiz-adv-x="444" 
d="M111 0v1425h223v-1425h-223z" />
    <glyph glyph-name="J" unicode="J" horiz-adv-x="751" 
d="M-10 150l163.999 125.997c15.333 -23.333 35.5 -42.666 60.5 -57.999s48.5 -23 70.5 -23c45.333 0 77.833 15.333 97.5 46s29.5 65.667 29.5 105v1079h221v-1071c0 -117.333 -29.333 -207.666 -88 -270.999s-144.667 -95 -258 -95c-61.333 0 -117.666 13.333 -168.999 40
s-94 67.334 -128 122.001z" />
    <glyph glyph-name="K" unicode="K" horiz-adv-x="880" 
d="M106 0v1425h220v-575h10l268 575h230l-144 -288.5l-143 -288.5l327 -848h-225l-229 614l-46.5 -99l-47.5 -99v-416h-220z" />
    <glyph glyph-name="L" unicode="L" horiz-adv-x="735" 
d="M106 0v1425h222v-1216h395v-209h-617z" />
    <glyph glyph-name="M" unicode="M" horiz-adv-x="1173" 
d="M100 0v1425h213l156 -405l113 -309h10l115 317l153 397h213v-1425h-221v821h-8l-90 -254l-101 -256h-133l-102 264l-88 250h-11v-825h-219z" />
    <glyph glyph-name="N" unicode="N" horiz-adv-x="954" 
d="M100 0l-0.00195312 1425h199l172 -424l40.5 -104l43.5 -104l72 -197c2.66699 0 4.33398 0.333008 5.00098 1s2.33398 1 5.00098 1v827h217v-1425h-195l-172 422l-80.5 204.5l-78.5 202.5h-9v-829h-219z" />
    <glyph glyph-name="O" unicode="O" horiz-adv-x="880" 
d="M94 342l0.000976562 717c0 56 6.5 107.167 19.5 153.5s33.167 86.166 60.5 119.499s63.166 59.333 107.499 78s97.166 28 158.499 28c65.333 0 120.333 -8.66699 165 -26s80.334 -42.333 107.001 -75s45.667 -72.167 57 -118.5s17 -98.833 17 -157.5v-696
c0 -124 -28 -217.833 -84 -281.5s-144 -95.5 -264 -95.5s-207.333 30.333 -262 91s-82 148.334 -82 263.001zM315.001 338c0 -36.667 9.33301 -69.668 28 -99.001s50.334 -44 95.001 -44c45.333 0 77.5 15.333 96.5 46s28.5 67.667 28.5 111v725
c0 39.333 -8.5 74.833 -25.5 106.5s-49.5 47.5 -97.5 47.5c-26 0 -47.167 -5.83301 -63.5 -17.5s-28.833 -26 -37.5 -43s-14.834 -36.167 -18.501 -57.5s-5.5 -40.666 -5.5 -57.999v-717z" />
    <glyph glyph-name="P" unicode="P" horiz-adv-x="843" 
d="M106 0v1425h316c131.333 0 227.333 -34 288 -102s91 -178 91 -330c0 -66.667 -6.16699 -127.334 -18.5 -182.001s-33.5 -101.5 -63.5 -140.5s-69.333 -69.333 -118 -91s-109.667 -32.5 -183 -32.5h-90v-547h-222zM328 758.001h78c68 0 115.333 19.333 142 58
s40 97 40 175c0 69.333 -12.667 124.333 -38 165s-72 61 -140 61h-82v-459z" />
    <glyph glyph-name="Q" unicode="Q" horiz-adv-x="880" 
d="M96 342l0.000976562 717c0 56 6.5 107.167 19.5 153.5s33.167 86.166 60.5 119.499s63.166 59.333 107.499 78s97.166 28 158.499 28c65.333 0 120.333 -8.66699 165 -26s80.334 -42.333 107.001 -75s45.667 -72.167 57 -118.5s17 -98.833 17 -157.5v-696
c0 -75.333 -10 -138.333 -30 -189l121 -96l-105 -127l-115 92c-26 -22 -57.667 -37 -95 -45s-78 -12 -122 -12c-120 0 -207.667 30.333 -263 91s-83 148.334 -83 263.001zM317.001 338c0 -36.667 9.33105 -70 27.998 -100s50.334 -45 95.001 -45c15.333 0 27 2 35 6l-72 59
l99 123l63 -51v712v35c0 12.667 -0.666992 25 -2 37c-2.66699 34 -13.5 62 -32.5 84s-48.5 33 -88.5 33c-42 0 -72.167 -14 -90.5 -42s-29.166 -60.333 -32.499 -97c-1.33301 -19.333 -2 -37.5 -2 -54.5v-50.5v-649z" />
    <glyph glyph-name="R" unicode="R" horiz-adv-x="880" 
d="M106 0v1425h326c116 0 206.833 -32.333 272.5 -97s98.5 -170 98.5 -316c0 -90 -12.667 -166.167 -38 -228.5s-70 -111.166 -134 -146.499l211 -637h-226l-184 590h-104v-590h-222zM328 798.999l90.001 0.000976562c57.333 0 99.666 16.667 126.999 50s41 87 41 161
c0 65.333 -13.333 116.166 -40 152.499s-70.667 54.5 -132 54.5h-86v-418z" />
    <glyph glyph-name="S" unicode="S" horiz-adv-x="841" 
d="M72 334l219.002 43.0078c2.66699 -53.333 12.834 -96.666 30.501 -129.999s52.5 -50 104.5 -50c30 0 53.833 5.66699 71.5 17s31 26.666 40 45.999s14.5 41.166 16.5 65.499s3 50.166 3 77.499c0 34 -2 62.667 -6 86s-11.833 43.166 -23.5 59.499
s-28.167 30.666 -49.5 42.999s-49 26.166 -83 41.499c-68 28.667 -122.833 58 -164.5 88s-73.5 61.667 -95.5 95s-36.333 68.833 -43 106.5s-10 79.167 -10 124.5c0 57.333 6.83301 109.833 20.5 157.5s34.834 88.834 63.501 123.501s65.167 61.667 109.5 81
s97.166 29 158.499 29c66.667 0 122 -10.667 166 -32s78.833 -48.333 104.5 -81s44 -68.834 55 -108.501s16.5 -77.834 16.5 -114.501l-219 -51c0 52 -8.83301 94.333 -26.5 127s-52.5 49 -104.5 49c-27.333 0 -48.833 -5.5 -64.5 -16.5s-28.334 -25.333 -38.001 -43
s-15.834 -36.834 -18.501 -57.501s-4 -41 -4 -61c0 -24.667 1.33301 -46.334 4 -65.001s10.5 -36.167 23.5 -52.5s32.5 -32.666 58.5 -48.999s61.667 -33.5 107 -51.5c62.667 -24.667 112.667 -50.834 150 -78.501s65.666 -58.334 84.999 -92.001s32 -71.167 38 -112.5
s9 -88.666 9 -141.999c0 -64 -5.83301 -121.667 -17.5 -173s-31.167 -95.166 -58.5 -131.499s-63.833 -64.333 -109.5 -84s-101.834 -29.5 -168.501 -29.5c-61.333 0 -114.166 8.83301 -158.499 26.5s-80.833 42.167 -109.5 73.5s-49.5 68.166 -62.5 110.499
s-19.5 87.5 -19.5 135.5z" />
    <glyph glyph-name="T" unicode="T" horiz-adv-x="696" 
d="M6 1219v206h682v-206h-229v-1219h-223v1219h-230z" />
    <glyph glyph-name="U" unicode="U" horiz-adv-x="886" 
d="M98 342l-0.000976562 1081h221v-1085c0 -36.667 9.33301 -69.667 28 -99s50.334 -44 95.001 -44c45.333 0 77.5 15.333 96.5 46s28.5 67.667 28.5 111v1071h224v-1058c0 -124 -27.667 -217.833 -83 -281.5s-143.333 -95.5 -264 -95.5c-120 0 -207.667 30.333 -263 91
s-83 148.334 -83 263.001z" />
    <glyph glyph-name="V" unicode="V" horiz-adv-x="862" 
d="M29 1425h235l96 -585l66 -449h10l66 449l98 585h234l-273 -1425h-264z" />
    <glyph glyph-name="W" unicode="W" horiz-adv-x="1251" 
d="M31 1425l241.001 -0.000976562l30.5 -266l29.5 -266l8 -72.5c4 -36.333 8 -74.666 12 -114.999l11.5 -114.5l7.5 -73h8c9.33301 53.333 18.166 106.333 26.499 159l24.5 159l105 589h188l102 -591c8 -53.333 16.5 -107 25.5 -161s18.5 -107.667 28.5 -161h8l33 324
l57 589h244l-207 -1425h-230l-112 618l-20.5 120l-20.5 120h-8l-43 -244l-57.5 -307l-57.5 -307h-227z" />
    <glyph glyph-name="X" unicode="X" horiz-adv-x="847" 
d="M12 0l289 745l-134.5 339l-133.5 341h248l69.5 -214l69.5 -214l8 2l135 426h250l-276 -680l148.5 -373.5l148.5 -371.5h-248l-162 489h-4l-162 -489h-246z" />
    <glyph glyph-name="Y" unicode="Y" horiz-adv-x="808" 
d="M16 1425h234l88 -309l65 -246h9l67 252l80 303h234l-277 -835v-590h-221v590z" />
    <glyph glyph-name="Z" unicode="Z" horiz-adv-x="698" 
d="M45 0v201l379 1018h-363v206h596v-196l-378 -1020h376v-209h-610z" />
    <glyph glyph-name="bracketleft" unicode="[" horiz-adv-x="481" 
d="M127 -209v1636h324v-149h-129v-1335h129v-152h-324z" />
    <glyph glyph-name="backslash" unicode="\" horiz-adv-x="512" 
d="M10 1462h166l320 -1513h-164z" />
    <glyph glyph-name="bracketright" unicode="]" horiz-adv-x="481" 
d="M31 -59h129v1337h-129v149h321v-1638h-321v152z" />
    <glyph glyph-name="asciicircum" unicode="^" 
d="M14 659l163 381.5l165 380.5h147l332 -766h-200l-117 293l-90 230l-101 -265l-50 -125.5l-48 -128.5h-201z" />
    <glyph glyph-name="underscore" unicode="_" horiz-adv-x="1024" 
d="M0 -143h1024v-156h-1024v156z" />
    <glyph glyph-name="grave" unicode="`" horiz-adv-x="759" 
d="M205 1456l182 82l172 -362l-117 -64z" />
    <glyph glyph-name="a" unicode="a" horiz-adv-x="788" 
d="M57 295c0 39.333 5.16699 78.168 15.5 116.501s27.166 72.166 50.499 101.499s54 53.166 92 71.499s85.667 27.5 143 27.5h129v111c0 30 -7.16699 53.5 -21.5 70.5s-41.166 25.5 -80.499 25.5c-20.667 0 -41.167 -6.83301 -61.5 -20.5s-33.833 -38.167 -40.5 -73.5
l-201 61c18 75.333 53.833 134.166 107.5 176.499s123.5 63.5 209.5 63.5c102.667 0 180.334 -23.167 233.001 -69.5s79 -124.166 79 -233.499v-723h-224v78l-6 2c-22 -31.333 -49.333 -54.5 -82 -69.5s-67.334 -22.5 -104.001 -22.5c-45.333 0 -83.333 8.16699 -114 24.5
s-55.167 38.5 -73.5 66.5s-31.333 60.333 -39 97s-11.5 76.334 -11.5 119.001zM274 307.002c0 -35.333 9.33301 -62.5 28 -81.5s43.667 -28.5 75 -28.5c35.333 0 62.5 11.167 81.5 33.5s28.5 52.833 28.5 91.5v124h-88c-31.333 0 -60 -10.167 -86 -30.5
s-39 -56.5 -39 -108.5z" />
    <glyph glyph-name="b" unicode="b" horiz-adv-x="788" 
d="M76 0l0.000976562 1487h221v-553h8c19.333 31.333 47 54.5 83 69.5s67 22.5 93 22.5c35.333 0 65 -3.66699 89 -11s44.167 -17.833 60.5 -31.5s29.333 -29.834 39 -48.501s18.5 -38 26.5 -58c10.667 -31.333 18.167 -71 22.5 -119s6.5 -98.667 6.5 -152v-92
c0 -49.333 -1 -97.166 -3 -143.499s-4.33301 -87.166 -7 -122.499c-5.33301 -53.333 -16 -96.666 -32 -129.999s-34.833 -59.666 -56.5 -78.999s-45.834 -32.666 -72.501 -39.999s-53.667 -11 -81 -11c-39.333 0 -73 6.83301 -101 20.5s-51.667 36.834 -71 69.501
c-1.33301 0 -2.33301 -0.333008 -3 -1s-1.66699 -1 -3 -1v-76h-219zM295.001 392.995c0 -24.667 0.665039 -48.334 1.99805 -71.001c0 -34 7.83301 -62.667 23.5 -86s40.5 -35 74.5 -35c22 0 39.167 4.66699 51.5 14s21.833 21 28.5 35c9.33301 18 15.5 47.667 18.5 89
s4.5 93.666 4.5 156.999c0 62.667 -0.666992 116.834 -2 162.501s-7.66602 80.167 -18.999 103.5c-6.66699 16.667 -16.167 29.334 -28.5 38.001s-30.166 13 -53.499 13c-39.333 0 -67.333 -17.667 -84 -53c-9.33301 -16.667 -14 -36.667 -14 -60
c-0.666992 -20.667 -1 -43 -1 -67v-36.5v-38.5c0 -27.333 -0.333008 -57 -1 -89v-76z" />
    <glyph glyph-name="c" unicode="c" horiz-adv-x="733" 
d="M68 498c0 32.667 0.663086 66.3311 1.99609 100.998s3.33301 67.667 6 99s6 60.666 10 87.999s9.33301 49.333 16 66c20.667 52 54.5 94.333 101.5 127s110.167 49 189.5 49c102.667 0 178.167 -28 226.5 -84s72.5 -133 72.5 -231l-109.5 -12.5
c-37.667 -4.33301 -74.167 -9.16602 -109.5 -14.499c0 48 -7.83301 82.833 -23.5 104.5s-36.5 32.5 -62.5 32.5c-40.667 0 -68.667 -20.333 -84 -61c-4 -13.333 -7.66699 -40.666 -11 -81.999s-5 -89 -5 -143v-74c0 -39.333 0.333008 -77.833 1 -115.5
s4.33398 -66.167 11.001 -85.5c6.66699 -22 16.834 -39.5 30.501 -52.5s32.834 -19.5 57.501 -19.5c57.333 0 86 44 86 132c36.667 -6.66699 73.5 -12.167 110.5 -16.5s73.833 -9.83301 110.5 -16.5c-1.33301 -95.333 -28.166 -169.333 -80.499 -222
s-129.166 -79 -230.499 -79c-46.667 0 -87 5.33301 -121 16s-63 25.667 -87 45s-43.167 41 -57.5 65s-24.833 49.333 -31.5 76c-4 16.667 -7.33301 37.334 -10 62.001s-4.33398 51 -5.00098 79l-2 86c-0.666992 29.333 -1 56.333 -1 81z" />
    <glyph glyph-name="d" unicode="d" horiz-adv-x="798" 
d="M66 500c0 61.333 1.66797 122.337 5.00098 183.004s9.66602 111 18.999 151c5.33301 24.667 13.166 48.5 23.499 71.5s24.333 43.333 42 61s39.834 32 66.501 43s60 16.5 100 16.5c28.667 0 57.667 -5.83301 87 -17.5s54 -29.834 74 -54.501h9v533h221v-1487h-219v76
c-1.33301 0 -2.5 0.333008 -3.5 1s-2.16699 1 -3.5 1c-19.333 -32.667 -43.333 -55.834 -72 -69.501s-62.667 -20.5 -102 -20.5c-27.333 0 -54.166 3.66699 -80.499 11s-50.5 20.666 -72.5 39.999s-40.833 45.666 -56.5 78.999s-26.167 76.666 -31.5 129.999
c-2.66699 30 -4.33398 67.833 -5.00098 113.5s-1 91.834 -1 138.501zM293.001 496.004c0 -62.667 1.33203 -115 3.99902 -157s8 -71.667 16 -89c6.66699 -15.333 16.167 -27.333 28.5 -36s29.5 -13 51.5 -13c34 0 59 11.5 75 34.5s24 51.833 24 86.5
c1.33301 22 2 45.167 2 69.5v73.5v53c-0.666992 22.667 -1 44.667 -1 66v31.5v29.5c0 19.333 -0.333008 37 -1 53c0 32.667 -7.66699 60 -23 82s-40.666 33 -75.999 33s-60.666 -16.333 -75.999 -49c-10.667 -22 -17.334 -55.833 -20.001 -101.5s-4 -101.167 -4 -166.5z" />
    <glyph glyph-name="e" unicode="e" horiz-adv-x="770" 
d="M68 500c0 65.333 2.33301 130.831 7 196.498s13.667 116.167 27 151.5c19.333 54.667 52.833 98.334 100.5 131.001s111.167 49 190.5 49c101.333 0 177.833 -28 229.5 -84s77.5 -135 77.5 -237v-252h-413c0 -38 0.333008 -74.833 1 -110.5s3.66699 -63.167 9 -82.5
c13.333 -46 42.666 -69 87.999 -69h2c54.667 0 85.334 38.667 92.001 116l221 -35c-5.33301 -90 -34.666 -160.167 -87.999 -210.5s-129 -75.5 -227 -75.5c-48 0 -89 5.83301 -123 17.5s-63 27 -87 46s-42.833 40.833 -56.5 65.5s-23.834 49 -30.501 73
c-4 16.667 -7.33301 37.334 -10 62.001s-4.66699 51 -6 79s-2.33301 56.667 -3 86s-1 57 -1 83zM289 605.998h188v86c0 32.667 -5.83301 62 -17.5 88s-35.834 39 -72.501 39c-39.333 0 -66.666 -19.667 -81.999 -59c-5.33301 -12 -9 -31.333 -11 -58
s-3.66699 -58.667 -5 -96z" />
    <glyph glyph-name="f" unicode="f" horiz-adv-x="524" 
d="M25 834v178h96v215c0 88.667 24.167 154.167 72.5 196.5s108.833 63.5 181.5 63.5h117v-203h-66c-26 0 -46.167 -8.16699 -60.5 -24.5s-21.5 -37.5 -21.5 -63.5v-184h152v-178h-152v-834h-223v834h-96z" />
    <glyph glyph-name="g" unicode="g" horiz-adv-x="802" 
d="M66 420l0.000976562 88c0 48 1 93.833 3 137.5s4.33301 83.167 7 118.5c10.667 94 38.5 160.833 83.5 200.5s98.167 59.5 159.5 59.5c39.333 0 73.166 -6.83301 101.499 -20.5s52.166 -36.834 71.499 -69.501c1.33301 0 2.33301 0.333008 3 1s1.66699 1 3 1v76h219v-1069
c0 -105.333 -24.333 -189.833 -73 -253.5s-131 -95.5 -247 -95.5c-95.333 0 -169.666 24 -222.999 72s-82 117 -86 207l108.5 16.5c37 5.66699 73.167 11.834 108.5 18.501c2.66699 -72.667 34.667 -109 96 -109c32.667 0 56.667 11.667 72 35s23 50.666 23 81.999v170h-7
c-19.333 -31.333 -47.333 -54.166 -84 -68.499s-68 -21.5 -94 -21.5c-39.333 0 -72.333 5.16699 -99 15.5s-48.5 24.333 -65.5 42s-30.333 38.5 -40 62.5s-17.167 50.333 -22.5 79c-6.66699 27.333 -11 61 -13 101s-3.66699 81.333 -5 124zM295.001 516
c0 -61.333 1.00098 -113.831 3.00098 -157.498s7.66699 -77.167 17 -100.5c15.333 -34 42.666 -51 81.999 -51c35.333 0 61.333 13.667 78 41c15.333 25.333 23 53 23 83v7v205v75.5c0 24.333 -0.666992 48.166 -2 71.499c0 34 -8 62.667 -24 86s-41 35 -75 35h-8
c-18 0 -32.333 -4.33301 -43 -13c-12 -9.33301 -21.667 -21.333 -29 -36c-9.33301 -18 -15.333 -47.833 -18 -89.5s-4 -93.834 -4 -156.501z" />
    <glyph glyph-name="h" unicode="h" horiz-adv-x="800" 
d="M82 0l-0.000976562 1487h221v-565h8c20.667 28.667 48.834 52.834 84.501 72.501s72.5 29.5 110.5 29.5c40.667 0 75 -6.83301 103 -20.5s50.167 -32.5 66.5 -56.5s28 -52.333 35 -85s10.5 -67.334 10.5 -104.001v-758h-223v700c0 72.667 -32.333 109 -97 109
c-30 0 -54.167 -9.83301 -72.5 -29.5s-27.5 -48.167 -27.5 -85.5v-694h-219z" />
    <glyph glyph-name="i" unicode="i" horiz-adv-x="417" 
d="M96 0v1012h223v-1012h-223zM96 1210v215h223v-215h-223z" />
    <glyph glyph-name="j" unicode="j" horiz-adv-x="411" 
d="M-33 -195h33.001c39.333 0 65.166 11 77.499 33s18.5 59 18.5 111v1065h223v-1120c0 -94 -24.833 -167 -74.5 -219s-128.5 -78 -236.5 -78h-41v208zM96.001 1210v215h223v-215h-223z" />
    <glyph glyph-name="k" unicode="k" horiz-adv-x="819" 
d="M84 0v1485h219v-836h10l213 363h258l-254 -394l279 -618h-254l-88 207.5l-88 208.5l-36.5 -68c-12.333 -22 -25.5 -44.333 -39.5 -67v-281h-219z" />
    <glyph glyph-name="l" unicode="l" horiz-adv-x="454" 
d="M86 268v1219h223v-1186c0 -39.333 5.83301 -67.666 17.5 -84.999s33.167 -26 64.5 -26h25v-202h-41c-49.333 0 -92 4.33301 -128 13s-66 24 -90 46s-41.833 51 -53.5 87s-17.5 80.667 -17.5 134z" />
    <glyph glyph-name="m" unicode="m" horiz-adv-x="1222" 
d="M92 0l-0.00488281 1014h221v-92l9 -2c20.667 28.667 46.167 53.167 76.5 73.5s64.833 30.5 103.5 30.5c52 0 93.667 -10.5 125 -31.5s54.333 -49.5 69 -85.5c28.667 35.333 61.834 63.666 99.501 84.999s76.834 32 117.501 32s75.167 -6.5 103.5 -19.5
s51 -31.167 68 -54.5s29.333 -50.666 37 -81.999s11.5 -65.333 11.5 -102v-766h-224v700c0 35.333 -7.83301 62.333 -23.5 81s-37.167 28 -64.5 28s-50.166 -9.5 -68.499 -28.5s-28.166 -45.167 -29.499 -78.5v-702h-223v700c0 35.333 -7.83301 62.333 -23.5 81
s-37.167 28 -64.5 28s-50.666 -10.667 -69.999 -32s-29 -50.333 -29 -87v-690h-221z" />
    <glyph glyph-name="n" unicode="n" horiz-adv-x="798" 
d="M78 0v1012h221v-90h8c20.667 28.667 48 52.834 82 72.501s70.333 29.5 109 29.5c40.667 0 75 -6.5 103 -19.5s50.5 -31.5 67.5 -55.5s29.333 -51.667 37 -83s11.5 -65.333 11.5 -102v-764h-221v700c0 72.667 -31 109 -93 109c-31.333 0 -56.5 -10.667 -75.5 -32
s-28.5 -50.333 -28.5 -87v-690h-221z" />
    <glyph glyph-name="o" unicode="o" horiz-adv-x="782" 
d="M68 427l0.00195312 71c0 32.667 0.666992 66.334 2 101.001s3.33301 67.667 6 99s6 60.666 10 87.999s9.33301 49.333 16 66c19.333 52 53.5 94.333 102.5 127s113.167 49 192.5 49c54.667 0 100.834 -7.16699 138.501 -21.5s68.834 -33.833 93.501 -58.5
s42.667 -53.334 54 -86.001s18.666 -68 21.999 -106c5.33301 -39.333 8.33301 -83 9 -131s1 -91.667 1 -131v-54c0 -31.333 -1 -62.666 -3 -93.999s-4.33301 -62 -7 -92c-6.66699 -56 -21.334 -101.833 -44.001 -137.5s-49.334 -63 -80.001 -82
s-63.834 -31.833 -99.501 -38.5s-70.5 -10 -104.5 -10c-48 0 -89.333 6.5 -124 19.5s-64 30.333 -88 52s-42.5 46.5 -55.5 74.5s-22.167 57.667 -27.5 89c-2.66699 18 -5 38.167 -7 60.5s-3.66699 45.833 -5 70.5s-2 49.667 -2 75zM287.002 463
c0 -36.667 0.334961 -72.165 1.00195 -106.498s3.66699 -61.833 9 -82.5c6.66699 -23.333 17.5 -42.666 32.5 -57.999s36.833 -23 65.5 -23c22 0 40.833 6.33301 56.5 19s26.167 28.667 31.5 48c1.33301 5.33301 3.16602 15.833 5.49902 31.5s4.16602 34.834 5.49902 57.501
s2.33301 47 3 73s1 52 1 78c0 48 -0.666992 94.5 -2 139.5s-5 78.833 -11 101.5c-2.66699 15.333 -7.33398 27.666 -14.001 36.999c-15.333 30 -40.666 45 -75.999 45c-32.667 0 -57 -12.333 -73 -37c-9.33301 -16.667 -16.5 -34.334 -21.5 -53.001
s-8.5 -40.334 -10.5 -65.001s-3 -52.334 -3 -83.001v-106v-16z" />
    <glyph glyph-name="p" unicode="p" horiz-adv-x="784" 
d="M70 -391l-0.00195312 1405h217v-76l6 -4c19.333 34 43.666 57.833 72.999 71.5s63 20.5 101 20.5c27.333 0 54.333 -3.66699 81 -11s50.834 -20.666 72.501 -39.999s40.334 -46 56.001 -80s26.5 -77.667 32.5 -131c2.66699 -30 4.66699 -67.5 6 -112.5
s2 -90.833 2 -137.5c0 -60 -1.66699 -121 -5 -183s-10 -113 -20 -153c-5.33301 -24.667 -13.166 -48.167 -23.499 -70.5s-24.333 -42.5 -42 -60.5s-40.167 -32.333 -67.5 -43s-60 -16 -98 -16c-28.667 0 -57.667 5 -87 15s-55 28 -77 54h-6v-448h-221zM288.998 368.999
c0 -23.333 0.334961 -44.998 1.00195 -64.998s3.66699 -35.333 9 -46c15.333 -38 44.666 -57 87.999 -57c36.667 0 62.667 15.667 78 47c9.33301 22 15.666 56.167 18.999 102.5s5 102.166 5 167.499c0 61.333 -1.33301 113.166 -4 155.499s-8.66699 72.5 -18 90.5
c-11.333 31.333 -38 47 -80 47c-32.667 0 -57.167 -11.333 -73.5 -34s-24.5 -51.667 -24.5 -87v-321z" />
    <glyph glyph-name="q" unicode="q" horiz-adv-x="800" 
d="M68 463l0.000976562 43.001c0 48 1 93.833 3 137.5s4.33301 83.167 7 118.5c5.33301 53.333 16.166 96.666 32.499 129.999s35.833 59.833 58.5 79.5s47 33.334 73 41.001s52.667 11.5 80 11.5c39.333 0 73 -6.83301 101 -20.5s51.667 -37.5 71 -71.5l6 4v76h219v-1405
h-221v471h-9c-19.333 -31.333 -47 -54.5 -83 -69.5s-67 -22.5 -93 -22.5c-35.333 0 -65 4 -89 12s-44.167 18.833 -60.5 32.5s-29.5 29.667 -39.5 48s-18.667 38.5 -26 60.5c-12 38 -20 87.167 -24 147.5s-6 119.166 -6 176.499zM297.001 516.001
c0 -61.333 1.00098 -115.501 3.00098 -162.501s7.66699 -82.167 17 -105.5c15.333 -32.667 42.666 -49 81.999 -49c30 0 54 10.5 72 31.5s27 46.5 27 76.5c0.666992 20.667 1 43 1 67v37.5v38.5c0 26 0.333008 52.667 1 80v13v75.5c0 24.333 -0.666992 47.5 -2 69.5
c0 35.333 -8 64.333 -24 87s-41 34 -75 34c-42 0 -68.667 -15.667 -80 -47c-9.33301 -18 -15.333 -48.167 -18 -90.5s-4 -94.166 -4 -155.499z" />
    <glyph glyph-name="r" unicode="r" horiz-adv-x="587" 
d="M102 0l0.00195312 1014h224v-113h4c26 52 56.667 85.833 92 101.5s77.666 23.5 126.999 23.5h20v-235c-10.667 1.33301 -20.834 2.33301 -30.501 3s-19.167 1 -28.5 1c-58.667 0 -104 -14 -136 -42s-48 -77.667 -48 -149v-604h-224z" />
    <glyph glyph-name="s" unicode="s" horiz-adv-x="743" 
d="M57 276l219 32.998v-8c0 -33.333 8 -60 24 -80c17.333 -22 41.666 -33 72.999 -33c32.667 0 57.167 9.33301 73.5 28s24.5 44.334 24.5 77.001c0 42 -7.5 71.667 -22.5 89s-42.833 33.333 -83.5 48c-45.333 16.667 -86.5 33.5 -123.5 50.5s-68 37 -93 60
s-44.333 50.333 -58 82s-20.5 69.834 -20.5 114.501c0 82 26.167 151 78.5 207s129.833 84 232.5 84c106.667 0 184.167 -26.667 232.5 -80s72.5 -125 72.5 -215l-217 -28v8c0.666992 32.667 -6.33301 59 -21 79c-16 21.333 -39 32.333 -69 33
c-35.333 0 -59.166 -10.167 -71.499 -30.5s-18.5 -40.833 -18.5 -61.5c0 -27.333 6.5 -49.5 19.5 -66.5s43.167 -33.833 90.5 -50.5c50.667 -16.667 94.167 -33.667 130.5 -51s66 -38.333 89 -63s40 -53.667 51 -87s16.5 -73.333 16.5 -120c0 -44 -5.5 -84.333 -16.5 -121
s-29 -69 -54 -97s-57.333 -49.833 -97 -65.5s-88.167 -23.5 -145.5 -23.5c-100 0 -177 24.5 -231 73.5s-82.333 120.5 -85 214.5z" />
    <glyph glyph-name="t" unicode="t" horiz-adv-x="520" 
d="M27 840l0.00195312 174h100v256h213v-256h123v-174h-123v-527c0 -38 6.16699 -65.5 18.5 -82.5s37.5 -25.5 75.5 -25.5h27v-205h-99c-46.667 0 -84.834 7.16699 -114.501 21.5s-53.834 33.166 -72.501 56.499s-31.667 49.333 -39 78s-11 57.334 -11 86.001v598h-98z" />
    <glyph glyph-name="u" unicode="u" horiz-adv-x="800" 
d="M80 250l0.000976562 764h223v-703c0 -39.333 7.83301 -67.5 23.5 -84.5s38.5 -25.5 68.5 -25.5c27.333 0 51.666 10.5 72.999 31.5s32 49.833 32 86.5v695h219v-1014h-221v90c-1.33301 0 -2.33301 0.333008 -3 1s-2.66699 1 -6 1c-20.667 -30 -48 -54.5 -82 -73.5
s-70 -28.5 -108 -28.5c-42 0 -77 6.5 -105 19.5s-50.667 31 -68 54s-29.333 50.667 -36 83s-10 66.833 -10 103.5z" />
    <glyph glyph-name="v" unicode="v" horiz-adv-x="751" 
d="M10 1012h242.001l36.5 -202.5c12.333 -67 24.166 -134.833 35.499 -203.5l24 -153.5c8 -50.333 17 -101.5 27 -153.5h10l49 305l68 408h239l-239 -1012h-254l-118.5 506z" />
    <glyph glyph-name="w" unicode="w" horiz-adv-x="1159" 
d="M20 1012h234l53 -363l49 -325h9l49 327l57 361h217l57 -359l58 -331h8l45 331l51 359h230l-209 -1012h-240l-51 262l-55 313h-9l-53 -307l-53 -268h-238z" />
    <glyph glyph-name="x" unicode="x" horiz-adv-x="755" 
d="M10 0l122 257.999l122 258l-234 496h248l111 -299h4c19.333 50.667 37.5 100.834 54.5 150.501s35.167 99.167 54.5 148.5h243l-233 -496l121.5 -258l119.5 -258h-243l-119 317h-6l-123 -317h-242z" />
    <glyph glyph-name="y" unicode="y" horiz-adv-x="735" 
d="M8 1012h235.998l63 -375l55 -295h9l55 295l74 375h227l-293 -1168c-19.333 -75.333 -49.666 -134 -90.999 -176s-101.666 -63 -180.999 -63h-78v194h45c30 0 54.5 10 73.5 30s35.5 58.667 49.5 116l14 63z" />
    <glyph glyph-name="z" unicode="z" horiz-adv-x="671" 
d="M53 0v201l318 614h-293v197h543v-187l-324 -618h324v-207h-568z" />
    <glyph glyph-name="braceleft" unicode="{" horiz-adv-x="501" 
d="M31 547v135.001c44 5.33301 75.833 27.5 95.5 66.5s29.5 90.5 29.5 154.5v289c0 72.667 19.333 130 58 172s86.667 63 144 63h115v-153h-43c-23.333 0 -42.166 -12.667 -56.499 -38s-21.5 -57.666 -21.5 -96.999v-267c0 -72.667 -13.333 -129.334 -40 -170.001
s-55 -67.667 -85 -81v-11c28.667 -10.667 56.667 -36.834 84 -78.501s41 -99.5 41 -173.5v-286c0 -40.667 7.16699 -72.334 21.5 -95.001s33.166 -34 56.499 -34h43v-154h-115c-57.333 0 -105.333 21.167 -144 63.5s-58 99.833 -58 172.5v301
c0 66.667 -10 118.834 -30 156.501s-51.667 59.167 -95 64.5z" />
    <glyph glyph-name="bar" unicode="|" horiz-adv-x="481" 
d="M156 -332v1813h174v-1813h-174z" />
    <glyph glyph-name="braceright" unicode="}" horiz-adv-x="501" 
d="M33 -57l43 0.00195312c23.333 0 42.166 11.167 56.499 33.5s21.5 54.166 21.5 95.499v286c0 74 13.667 131.833 41 173.5s55.333 67.834 84 78.501v11c-30 13.333 -58.333 40.5 -85 81.5s-40 97.5 -40 169.5v267c0 39.333 -7.16699 71.666 -21.5 96.999
s-33.166 38 -56.499 38h-43v153h117c57.333 0 105 -21.167 143 -63.5s57 -99.5 57 -171.5v-289c0 -64 10 -115.5 30 -154.5s51.667 -61.167 95 -66.5v-135c-44 -5.33301 -75.833 -26.833 -95.5 -64.5s-29.5 -89.834 -29.5 -156.501v-301c0 -72.667 -19 -130.167 -57 -172.5
s-85.667 -63.5 -143 -63.5h-117v154z" />
    <glyph glyph-name="asciitilde" unicode="~" 
d="M16 508c28.667 61.333 62.502 110.167 101.502 146.5s87.167 54.5 144.5 54.5c30 0 58 -5.5 84 -16.5s51 -22.667 75 -35l68.5 -34c21.667 -10.333 43.5 -15.5 65.5 -15.5c24.667 0 46.167 7.5 64.5 22.5s40.5 38.833 66.5 71.5l121 -71
c-31.333 -65.333 -66.166 -115.5 -104.499 -150.5s-81.5 -52.5 -129.5 -52.5c-27.333 0 -53.833 5.16699 -79.5 15.5s-50.834 22 -75.501 35s-49.334 24.5 -74.001 34.5s-48.667 15 -72 15c-26 0 -48.833 -6.5 -68.5 -19.5s-43.834 -37.833 -72.501 -74.5z" />
    <glyph glyph-name="uni00A0" unicode="&#xa0;" horiz-adv-x="419" 
 />
    <glyph glyph-name="exclamdown" unicode="&#xa1;" horiz-adv-x="516" 
d="M150 -408l18 1037h182l19 -1037h-219zM152 795v225h213v-225h-213z" />
    <glyph glyph-name="cent" unicode="&#xa2;" 
d="M100 498c0 32.667 0.664062 66.3301 1.99707 100.997s3.5 67.667 6.5 99s6.5 60.666 10.5 87.999s9.33301 49.333 16 66c18 44 45 81.667 81 113s84.667 51 146 59v209h109v-207c86 -8 149.833 -39.667 191.5 -95s62.5 -128 62.5 -218l-109.5 -12.5
c-37.667 -4.33301 -74.167 -9.16602 -109.5 -14.499c0 48 -7.83301 82.833 -23.5 104.5s-36.5 32.5 -62.5 32.5c-40.667 0 -68.667 -20.333 -84 -61c-4 -13.333 -7.83301 -40.666 -11.5 -81.999s-5.5 -89 -5.5 -143v-74c0 -39.333 0.5 -77.833 1.5 -115.5
s4.83301 -66.167 11.5 -85.5c6.66699 -22 16.834 -39.5 30.501 -52.5s32.834 -19.5 57.501 -19.5c57.333 0 86 44 86 132c36.667 -6.66699 73.5 -12.167 110.5 -16.5s73.833 -9.83301 110.5 -16.5c-1.33301 -86 -23.833 -154.667 -67.5 -206s-106.5 -81.666 -188.5 -90.999
v-232h-109v232c-75.333 6.66699 -131.666 29.5 -168.999 68.5s-62 82.167 -74 129.5c-4 16.667 -7.5 37.334 -10.5 62.001s-4.83301 51 -5.5 79l-2 86c-0.666992 29.333 -1 56.333 -1 81z" />
    <glyph glyph-name="sterling" unicode="&#xa3;" 
d="M61 0v185.999c19.333 32.667 35.5 63 48.5 91s24 57.167 33 87.5s16.5 62.833 22.5 97.5s11 75.334 15 122.001h-117v172h105c-6.66699 34 -14.5 64.667 -23.5 92l-26 81c-8.33301 26.667 -15.5 54 -21.5 82s-9 59 -9 93c0 50.667 8.16699 96.5 24.5 137.5
s39.166 76.167 68.499 105.5s64.5 51.833 105.5 67.5s86.167 23.5 135.5 23.5c108 0 192.667 -29.667 254 -89s92 -141.666 92 -246.999l-215 -49c0 52 -10.667 93.667 -32 125s-53.666 47 -96.999 47c-31.333 0 -58.333 -11 -81 -33s-34 -51.333 -34 -88
c0 -24.667 3.16699 -49.334 9.5 -74.001s13.833 -50.667 22.5 -78s17.5 -57 26.5 -89s16.833 -67.667 23.5 -107h199v-172h-193c0 -82 -7.83301 -152 -23.5 -210s-37.167 -115.667 -64.5 -173h428v-201h-676z" />
    <glyph glyph-name="yen" unicode="&#xa5;" 
d="M35 1425h226.999l80 -284c10.667 -48 21.834 -95.167 33.501 -141.5l36.5 -139.5h10l34.5 141.5c11 46.333 22.833 93.5 35.5 141.5l36.5 141.5l38.5 140.5h226l-234 -723h170v-118h-203c-1.33301 -6.66699 -2.33301 -14.167 -3 -22.5s-1 -15.833 -1 -22.5v-60h207v-121
h-207v-358h-215v358h-201v121h201v60c0 6.66699 -0.333008 14 -1 22s-1.66699 15.667 -3 23h-197v118h162z" />
    <glyph glyph-name="section" unicode="&#xa7;" horiz-adv-x="866" 
d="M72 2l123.003 137.002c44 -39.333 82.167 -65.833 114.5 -79.5s64.5 -20.5 96.5 -20.5c49.333 0 86.166 11.167 110.499 33.5s36.5 51.5 36.5 87.5c0 70.667 -66.333 142.334 -199 215.001c-44 24.667 -83 48.167 -117 70.5s-62.167 46.166 -84.5 71.499
s-39.333 53.333 -51 84s-17.5 66.667 -17.5 108c0 45.333 12 87.666 36 126.999s55.667 70.666 95 93.999c-57.333 58.667 -86 126.334 -86 203.001c0 45.333 8.16699 86.333 24.5 123s38.833 68.667 67.5 96s63.167 48.5 103.5 63.5s84.5 22.5 132.5 22.5
c65.333 0 123.666 -11 174.999 -33s102.666 -55.333 153.999 -100l-124 -144c-44 39.333 -82 64.166 -114 74.499s-62.333 15.5 -91 15.5c-35.333 0 -64 -10.5 -86 -31.5s-33 -45.833 -33 -74.5c0 -35.333 15.333 -66.333 46 -93s70.667 -54.334 120 -83.001l114.5 -74
c37 -24.667 69.5 -51.334 97.5 -80.001s50.5 -60.167 67.5 -94.5s25.5 -72.5 25.5 -114.5c0 -49.333 -10.167 -91.666 -30.5 -126.999s-50.5 -66 -90.5 -92c27.333 -34 47.166 -69.5 59.499 -106.5s18.5 -74.5 18.5 -112.5c0 -46.667 -8.5 -88.667 -25.5 -126
s-41.167 -69.666 -72.5 -96.999s-69.666 -48.5 -114.999 -63.5s-95.333 -22.5 -150 -22.5c-57.333 0 -116 13 -176 39s-111.667 60.667 -155 104zM285.003 717.002c0 -22 8.16699 -43.168 24.5 -63.501s37.166 -39.833 62.499 -58.5s53 -36.167 83 -52.5l84 -44.5
c20.667 8 36.667 21.833 48 41.5s17 39.834 17 60.501c0 38 -19.167 72.5 -57.5 103.5s-101.166 67.5 -188.499 109.5c-22 -6.66699 -39.667 -18.5 -53 -35.5s-20 -37.167 -20 -60.5z" />
    <glyph glyph-name="dieresis" unicode="&#xa8;" horiz-adv-x="724" 
d="M100 1163v215h193v-215h-193zM436 1163v215h193v-215h-193z" />
    <glyph glyph-name="copyright" unicode="&#xa9;" horiz-adv-x="1439" 
d="M88 698c0 104 13.332 199.666 39.999 286.999s66.334 163.166 119.001 227.499s117.834 114.5 195.501 150.5s167.167 54 268.5 54c100 0 188.5 -18 265.5 -54s142 -86.167 195 -150.5s93.167 -140.166 120.5 -227.499s41 -183 41 -287
c0 -102.667 -13.667 -197.167 -41 -283.5s-67.5 -161.666 -120.5 -225.999s-118 -114.5 -195 -150.5s-165.5 -54 -265.5 -54c-102.667 0 -192.5 18 -269.5 54s-141.833 86.167 -194.5 150.5s-92.334 139.833 -119.001 226.5s-40 181 -40 283zM232.999 697.999
c0 -80.667 10.6689 -156 32.002 -226s52.166 -131.333 92.499 -184s90.166 -94.334 149.499 -125.001s127.333 -46 204 -46c79.333 0 149 15.333 209 46s109.667 72.334 149 125.001s69 114.167 89 184.5s30 145.5 30 225.5c0 80.667 -10.333 156.834 -31 228.501
s-51 134.167 -91 187.5s-89.667 95.333 -149 126s-128 46 -206 46c-80.667 0 -151 -15.333 -211 -46s-109.833 -72.667 -149.5 -126s-69.167 -115.833 -88.5 -187.5s-29 -147.834 -29 -228.501zM481.001 482.999l-0.000976562 404c0 74 22 131 66 171s100 60 168 60
c65.333 0 120.5 -20.5 165.5 -61.5s67.5 -94.167 67.5 -159.5l-137 -35c-1.33301 35.333 -10.166 63.666 -26.499 84.999s-39.5 32 -69.5 32c-31.333 0 -54.5 -8.83301 -69.5 -26.5s-22.5 -38.167 -22.5 -61.5v-418c0 -23.333 8.5 -43.166 25.5 -59.499
s38.5 -24.5 64.5 -24.5c58.667 0 90 39 94 117l141 -29c-2.66699 -74 -24.834 -130.333 -66.501 -169s-97.167 -58 -166.5 -58c-65.333 0 -120.666 19.5 -165.999 58.5s-68 97.167 -68 174.5z" />
    <glyph glyph-name="guillemotleft" unicode="&#xab;" horiz-adv-x="997" 
d="M92 492l230 395h210l-225 -395l225 -398h-210zM467 492l229 395h211l-225 -395l225 -398h-211z" />
    <glyph glyph-name="uni00AD" unicode="&#xad;" horiz-adv-x="747" 
d="M100 479v193h570v-193h-570z" />
    <glyph glyph-name="registered" unicode="&#xae;" horiz-adv-x="995" 
d="M84 1004c0 68 8.83301 131.003 26.5 189.003s44 108.167 79 150.5s78 75.5 129 99.5s110.833 36 179.5 36c65.333 0 123.333 -12 174 -36s93.334 -57.167 128.001 -99.5s61.167 -92.5 79.5 -150.5s27.5 -121 27.5 -189c0 -66.667 -9.16699 -128.834 -27.5 -186.501
s-44.833 -107.667 -79.5 -150s-77.334 -75.5 -128.001 -99.5s-108.667 -36 -174 -36c-68 0 -127.667 12 -179 36s-94.5 57.167 -129.5 99.5s-61.333 92.166 -79 149.499s-26.5 119.666 -26.5 186.999zM188 1008c0 -54.667 6.83105 -105.001 20.498 -151.001
s33.5 -85.333 59.5 -118s58.167 -58.167 96.5 -76.5s82.833 -27.5 133.5 -27.5c53.333 0 99 9.5 137 28.5s69.333 45.333 94 79s42.834 73.334 54.501 119.001s17.5 94.5 17.5 146.5s-6.5 100.833 -19.5 146.5s-32.167 85.5 -57.5 119.5s-57 60.833 -95 80.5
s-81.667 29.5 -131 29.5c-53.333 0 -99.166 -9.83301 -137.499 -29.5s-70.5 -46.5 -96.5 -80.5s-45.167 -74 -57.5 -120s-18.5 -94.667 -18.5 -146zM349.998 719.002v559h152c104 0 155.667 -58 155 -174c0 -30 -4.33301 -58 -13 -84s-26.667 -47.333 -54 -64l88 -237h-117
l-74 217h-30v-217h-107zM456.998 1032l39 -0.00195312c20.667 0 35 6.83301 43 20.5s12 30.834 12 51.501c0 24.667 -4.5 43.834 -13.5 57.501s-25.167 20.5 -48.5 20.5h-32v-150z" />
    <glyph glyph-name="degree" unicode="&#xb0;" horiz-adv-x="649" 
d="M92 1198c0 32.667 6.16895 63.667 18.502 93s29.5 54.666 51.5 75.999s47.333 38.5 76 51.5s59.334 19.5 92.001 19.5c34 0 65.333 -6.5 94 -19.5s53.5 -30.167 74.5 -51.5s37.667 -46.666 50 -75.999s18.5 -60.333 18.5 -93s-6.16699 -63.334 -18.5 -92.001
s-29.333 -54 -51 -76s-46.834 -39 -75.501 -51s-59.334 -18 -92.001 -18s-63.334 6 -92.001 18s-54 29 -76 51s-39.167 47.333 -51.5 76s-18.5 59.334 -18.5 92.001zM225.002 1198c0 -30 10 -55.167 30 -75.5s45 -30.5 75 -30.5s54.833 10.167 74.5 30.5
s29.5 45.5 29.5 75.5c0 31.333 -9.83301 57 -29.5 77s-44.5 30 -74.5 30s-55 -10 -75 -30s-30 -45.667 -30 -77z" />
    <glyph glyph-name="acute" unicode="&#xb4;" horiz-adv-x="759" 
d="M270 1176l174 362l183 -82l-238 -344z" />
    <glyph glyph-name="paragraph" unicode="&#xb6;" horiz-adv-x="882" 
d="M20 1032c0 50.667 5.83301 99.833 17.5 147.5s30.167 90.334 55.5 128.001s58.5 68.167 99.5 91.5s91.5 35 151.5 35h479v-195h-92v-1382h-174v1382h-102v-1382h-179v790c-78 13.333 -140.167 51.166 -186.5 113.499s-69.5 152.833 -69.5 271.5z" />
    <glyph glyph-name="periodcentered" unicode="&#xb7;" horiz-adv-x="432" 
d="M100 430v248h230v-248h-230z" />
    <glyph glyph-name="cedilla" unicode="&#xb8;" horiz-adv-x="882" 
d="M205 -385l35.0029 92.002c27.333 -12 50.166 -19.833 68.499 -23.5s35.5 -5.5 51.5 -5.5c19.333 0 36.166 6.16699 50.499 18.5s21.5 28.166 21.5 47.499c0 46.667 -30.667 69.334 -92 68.001l-51 38l61 205l101 -2l-45 -145c34 -4 61.833 -11.833 83.5 -23.5
s39 -25.667 52 -42s21.833 -33.833 26.5 -52.5s7 -35.334 7 -50.001c0 -15.333 -3 -32.5 -9 -51.5s-16.167 -36.667 -30.5 -53s-33.5 -30.333 -57.5 -42s-53 -17.5 -87 -17.5c-10.667 0 -34.834 1.66699 -72.501 5s-75.5 14.666 -113.5 33.999z" />
    <glyph glyph-name="guillemotright" unicode="&#xbb;" horiz-adv-x="997" 
d="M94 94l225 398l-225 395h213l228 -395l-228 -398h-213zM469 94l227 398l-227 395h213l227 -395l-227 -398h-213z" />
    <glyph glyph-name="questiondown" unicode="&#xbf;" horiz-adv-x="806" 
d="M78 -55c0 34 1.33301 63.999 4 89.999s7 49.5 13 70.5s13.833 41.833 23.5 62.5s21.5 42.334 35.5 65.001l42.5 69c15 24 29.333 48.667 43 74s25 51 34 77s13.5 52.333 13.5 79v109h217v-164c0 -30 -4.83301 -58.667 -14.5 -86s-21.834 -53.333 -36.501 -78l-79 -132
c-20 -33.333 -35.167 -62.333 -45.5 -87s-16.833 -47.5 -19.5 -68.5s-4 -46.5 -4 -76.5c0 -15.333 2 -31.833 6 -49.5s10.5 -34.667 19.5 -51s21.333 -30 37 -41s35.834 -16.5 60.501 -16.5c32.667 0 61.667 13.333 87 40s38 72.667 38 138l217 -24
c-2.66699 -121.333 -36.167 -212.5 -100.5 -273.5s-147.5 -91.5 -249.5 -91.5c-120 0 -207 31.5 -261 94.5s-81 153.167 -81 270.5zM291 792.999v225h211v-225h-211z" />
    <glyph glyph-name="florin" unicode="&#x192;" 
d="M-4 -137c1.33301 6.66699 4.66113 18.168 9.99414 34.501l17.5 52c6.33301 18.333 11.833 35.5 16.5 51.5s8.33398 27.333 11.001 34c19.333 -9.33301 35.5 -15.166 48.5 -17.499s24.833 -3.5 35.5 -3.5c35.333 0 61.333 16.833 78 50.5s29 85.834 37 156.501l53 469
h-131v189h158l20 157c5.33301 48 14.166 95.5 26.499 142.5s30.833 89 55.5 126s55.834 67.167 93.501 90.5s85.167 35 142.5 35c27.333 0 55 -1.83301 83 -5.5s53.333 -11.5 76 -23.5l-43 -189c-20.667 9.33301 -40.167 15.166 -58.5 17.499s-34.166 3.5 -47.499 3.5
c-39.333 0 -67.666 -17.833 -84.999 -53.5s-28.666 -77.834 -33.999 -126.501l-22 -174h155v-189h-178l-51 -454c-8 -66.667 -18.5 -125.667 -31.5 -177s-30.833 -94.5 -53.5 -129.5s-50.667 -61.333 -84 -79s-74 -26.5 -122 -26.5c-23.333 0 -50.666 2.66699 -81.999 8
s-62.666 15.666 -93.999 30.999z" />
    <glyph glyph-name="circumflex" unicode="&#x2c6;" horiz-adv-x="765" 
d="M72 1169l270 306h129l258 -304l-88 -79l-240 192l-241 -192z" />
    <glyph glyph-name="ring" unicode="&#x2da;" horiz-adv-x="788" 
d="M227 1282c0 54.667 18.833 101.167 56.5 139.5s84.5 57.5 140.5 57.5s102.333 -19.167 139 -57.5s55 -84.833 55 -139.5s-18.333 -101.167 -55 -139.5s-83 -57.5 -139 -57.5s-102.833 19.167 -140.5 57.5s-56.5 84.833 -56.5 139.5zM342 1280
c0 -23.333 7.83301 -42.5 23.5 -57.5s35.167 -22.5 58.5 -22.5c22 0 40.833 7.5 56.5 22.5s23.5 34.167 23.5 57.5c0 22 -7.83301 40.833 -23.5 56.5s-34.5 23.5 -56.5 23.5c-23.333 0 -42.833 -7.83301 -58.5 -23.5s-23.5 -34.5 -23.5 -56.5z" />
    <glyph glyph-name="tilde" unicode="&#x2dc;" horiz-adv-x="741" 
d="M47 1227c24.667 54.667 56.1699 97.332 94.5029 127.999s76.5 46 114.5 46c20.667 0 40.5 -3.83301 59.5 -11.5s37.667 -16.167 56 -25.5s36.166 -17.833 53.499 -25.5s34 -11.5 50 -11.5c19.333 0 37.166 5.5 53.499 16.5s36.166 31.5 59.499 61.5l52.5 -31.5
l53.5 -32.5c-30 -62.667 -62 -108 -96 -136s-68.667 -42 -104 -42c-23.333 0 -45 3.83301 -65 11.5s-39.167 16.167 -57.5 25.5s-36 17.833 -53 25.5s-33.833 11.5 -50.5 11.5s-34.5 -6.16699 -53.5 -18.5s-38.5 -32.166 -58.5 -59.499z" />
    <glyph glyph-name="afii10023" unicode="&#x401;" horiz-adv-x="778" 
d="M106 0v1425h633v-208h-411v-388h358v-211h-358v-409h411v-209h-633zM162 1516v217h192v-217h-192zM498 1516v217h192v-217h-192z" />
    <glyph glyph-name="afii10051" unicode="&#x402;" horiz-adv-x="1011" 
d="M20 1219l0.00195312 206.001h746v-206h-315v-332h6c32.667 24.667 67.667 42.667 105 54s74 17 110 17c49.333 0 89.666 -8.16699 120.999 -24.5s56.5 -37.5 75.5 -63.5s32.333 -55.333 40 -88s11.5 -65.334 11.5 -98.001v-383c0 -118.667 -22 -210.167 -66 -274.5
s-122.667 -96.5 -236 -96.5h-45v185c44 0 75.5 14 94.5 42s28.5 67 28.5 117v349c0 36.667 -7.33301 67.667 -22 93s-44 38 -88 38c-18 0 -39.333 -5.16699 -64 -15.5s-48.334 -26.5 -71.001 -48.5v-690h-222v1219h-209z" />
    <glyph glyph-name="afii10052" unicode="&#x403;" horiz-adv-x="770" 
d="M106 0v1425h617v-208h-395v-1217h-222zM236 1577l315 248l131 -154l-367 -201z" />
    <glyph glyph-name="afii10053" unicode="&#x404;" horiz-adv-x="823" 
d="M94 340v708.996c0 53.333 6.16699 103.833 18.5 151.5s32.5 88.834 60.5 123.501s63.833 62.334 107.5 83.001s96.834 31 159.501 31c57.333 0 107.166 -7.83301 149.499 -23.5s77.166 -37.5 104.499 -65.5s48.166 -61.5 62.499 -100.5s21.5 -81.833 21.5 -128.5
l-215 -43c-1.33301 45.333 -12.5 82 -33.5 110s-51.5 42 -91.5 42c-24.667 0 -45.167 -5.5 -61.5 -16.5s-29.166 -24.667 -38.499 -41s-15.833 -34.5 -19.5 -54.5s-5.5 -38.667 -5.5 -56v-227h285v-216h-285v-282c0 -15.333 1.5 -31.166 4.5 -47.499
s8.83301 -31.666 17.5 -45.999s20.834 -25.833 36.501 -34.5s35.834 -13 60.501 -13c79.333 0 121 52.333 125 157l221 -35c-5.33301 -102.667 -36.333 -183.167 -93 -241.5s-138.334 -87.5 -245.001 -87.5c-118.667 0 -206 29.667 -262 89s-84 147 -84 263z" />
    <glyph glyph-name="afii10054" unicode="&#x405;" horiz-adv-x="841" 
d="M72 334l219.002 43.0078c2.66699 -53.333 12.834 -96.666 30.501 -129.999s52.5 -50 104.5 -50c30 0 53.833 5.66699 71.5 17s31 26.666 40 45.999s14.5 41.166 16.5 65.499s3 50.166 3 77.499c0 34 -2 62.667 -6 86s-11.833 43.166 -23.5 59.499
s-28.167 30.666 -49.5 42.999s-49 26.166 -83 41.499c-68 28.667 -122.833 58 -164.5 88s-73.5 61.667 -95.5 95s-36.333 68.833 -43 106.5s-10 79.167 -10 124.5c0 57.333 6.83301 109.833 20.5 157.5s34.834 88.834 63.501 123.501s65.167 61.667 109.5 81
s97.166 29 158.499 29c66.667 0 122 -10.667 166 -32s78.833 -48.333 104.5 -81s44 -68.834 55 -108.501s16.5 -77.834 16.5 -114.501l-219 -51c0 52 -8.83301 94.333 -26.5 127s-52.5 49 -104.5 49c-27.333 0 -48.833 -5.5 -64.5 -16.5s-28.334 -25.333 -38.001 -43
s-15.834 -36.834 -18.501 -57.501s-4 -41 -4 -61c0 -24.667 1.33301 -46.334 4 -65.001s10.5 -36.167 23.5 -52.5s32.5 -32.666 58.5 -48.999s61.667 -33.5 107 -51.5c62.667 -24.667 112.667 -50.834 150 -78.501s65.666 -58.334 84.999 -92.001s32 -71.167 38 -112.5
s9 -88.666 9 -141.999c0 -64 -5.83301 -121.667 -17.5 -173s-31.167 -95.166 -58.5 -131.499s-63.833 -64.333 -109.5 -84s-101.834 -29.5 -168.501 -29.5c-61.333 0 -114.166 8.83301 -158.499 26.5s-80.833 42.167 -109.5 73.5s-49.5 68.166 -62.5 110.499
s-19.5 87.5 -19.5 135.5z" />
    <glyph glyph-name="afii10055" unicode="&#x406;" horiz-adv-x="444" 
d="M111 0v1425h223v-1425h-223z" />
    <glyph glyph-name="afii10056" unicode="&#x407;" horiz-adv-x="444" 
d="M-43 1530v215h193v-215h-193zM111 0v1425h223v-1425h-223zM293 1530v215h192v-215h-192z" />
    <glyph glyph-name="afii10057" unicode="&#x408;" horiz-adv-x="720" 
d="M-41 150l163.999 125.997c15.333 -23.333 35.5 -42.666 60.5 -57.999s48.5 -23 70.5 -23c45.333 0 77.833 15.333 97.5 46s29.5 65.667 29.5 105v1079h221v-1071c0 -117.333 -29.333 -207.666 -88 -270.999s-144.667 -95 -258 -95c-61.333 0 -117.666 13.333 -168.999 40
s-94 67.334 -128 122.001z" />
    <glyph glyph-name="afii10058" unicode="&#x409;" horiz-adv-x="1300" 
d="M2 127c35.333 20.667 64.332 43.1641 86.999 67.4971s40.834 54.333 54.501 90s22.834 79.167 27.501 130.5s7 115 7 191v819h604v-546h95c74 0 135.167 -10 183.5 -30s87.166 -48.667 116.499 -86s50 -82.666 62 -135.999s18 -112.666 18 -177.999
c0 -148.667 -30.667 -260.667 -92 -336s-156 -113 -284 -113h-320v1217h-186v-549c0 -114.667 -4.16699 -211 -12.5 -289s-23.333 -143.667 -45 -197s-51 -96.666 -88 -129.999s-84.833 -63 -143.5 -89zM781.999 208.997h83.999c68 0 114.333 21.5 139 64.5
s37 99.833 37 170.5c0 78 -13.167 134.833 -39.5 170.5s-73.166 53.5 -140.499 53.5h-80v-459z" />
    <glyph glyph-name="afii10059" unicode="&#x40a;" horiz-adv-x="1312" 
d="M106 0l0.00195312 1425h220v-569h247v569h222v-569h94c74 0 135.167 -9.16699 183.5 -27.5s87.166 -45.333 116.499 -81s50.166 -79.334 62.499 -131.001s18.5 -111.167 18.5 -178.5c0 -148.667 -30.833 -258.834 -92.5 -330.501s-157.167 -107.5 -286.5 -107.5h-318v645
h-247v-645h-220zM795.002 209.002l82.002 -0.000976562c8 0 17.333 1.33301 28 4c61.333 5.33301 101.666 27.833 120.999 67.5s29 90.834 29 153.501c0 78 -13.333 132.667 -40 164s-74.334 47 -143.001 47h-77v-436z" />
    <glyph glyph-name="afii10060" unicode="&#x40b;" horiz-adv-x="1009" 
d="M18 1219l-0.000976562 206.001h742v-206h-309v-332h6c34 24.667 69.333 42.667 106 54s73 17 109 17c86 0 148.833 -24.833 188.5 -74.5s59.5 -116.167 59.5 -199.5v-684h-224v625c0 39.333 -8.16699 70.666 -24.5 93.999s-44.833 35 -85.5 35
c-19.333 0 -41.666 -5.5 -66.999 -16.5s-48 -26.833 -68 -47.5v-690h-222v1219h-211z" />
    <glyph glyph-name="afii10061" unicode="&#x40c;" horiz-adv-x="899" 
d="M106 0l-0.00195312 1425h220v-602h45c49.333 0 89.666 14.333 120.999 43s55 80 71 154l17.5 76.5c9 39 18 80.667 27 125l25.5 125c8 39 13.333 64.5 16 76.5h207l-45.5 -214l-44.5 -212c-15.333 -69.333 -38.333 -125.5 -69 -168.5s-65.667 -72.833 -105 -89.5v-4
c52 -19.333 92.333 -50 121 -92s50.334 -98 65.001 -168c18 -80.667 34.833 -160.167 50.5 -238.5s32.5 -157.166 50.5 -236.499h-222l-40.5 208.5c-13.667 69.667 -28.167 139.5 -43.5 209.5c-15.333 76.667 -38.166 130 -68.499 160s-70.166 45 -119.499 45h-59v-623h-220
zM312.998 1577l316 248l131 -154l-367 -201z" />
    <glyph glyph-name="afii10062" unicode="&#x40e;" horiz-adv-x="796" 
d="M12 1423l215 -0.00195312l176 -737h11l170 739h207l-287 -1101c-19.333 -78 -41 -139.5 -65 -184.5s-49.167 -79.167 -75.5 -102.5s-54.666 -38.333 -84.999 -45s-61.833 -10.667 -94.5 -12h-80v178h52c34 0 61.5 11.167 82.5 33.5s39.167 57.5 54.5 105.5
c1.33301 1.33301 2.66602 5.33301 3.99902 12s3 13.834 5 21.501s4 14.834 6 21.501s3.66699 11.667 5 15zM113 1733h160.999c1.33301 -15.333 5.83301 -30.833 13.5 -46.5s17.334 -30.334 29.001 -44.001s25 -25 40 -34s32.167 -13.5 51.5 -13.5
c20.667 0 38.667 4.5 54 13.5s28.5 20.333 39.5 34s19.667 28.334 26 44.001s9.5 31.167 9.5 46.5h161c-2.66699 -28.667 -10.167 -59.834 -22.5 -93.501s-30.333 -64.5 -54 -92.5s-53 -51.167 -88 -69.5s-76.833 -27.5 -125.5 -27.5c-53.333 0 -98.5 9.16699 -135.5 27.5
s-67.167 41.5 -90.5 69.5s-40.333 58.833 -51 92.5s-16.667 64.834 -18 93.501z" />
    <glyph glyph-name="afii10145" unicode="&#x40f;" horiz-adv-x="888" 
d="M106 0v1425h222v-1210h235v1210h221v-1425h-245v-272h-185v272h-248z" />
    <glyph glyph-name="afii10017" unicode="&#x410;" horiz-adv-x="864" 
d="M23 0l143.5 712.5l142.5 712.5h246l289 -1425h-226l-55 297h-262l-27.5 -148.5c-9 -49.667 -17.5 -99.167 -25.5 -148.5h-225zM334 504h193.998l-92 592h-10c-13.333 -98 -27.666 -196 -42.999 -294s-31.666 -197.333 -48.999 -298z" />
    <glyph glyph-name="afii10018" unicode="&#x411;" horiz-adv-x="843" 
d="M104 0l0.00195312 1425h623v-208h-403v-340h94c74 0 135.167 -10 183.5 -30s87.166 -48.333 116.499 -85s50.166 -81.667 62.499 -135s18.5 -113.666 18.5 -180.999c0 -148.667 -30.833 -260.167 -92.5 -334.5s-156.5 -111.5 -284.5 -111.5h-318zM324.002 208.999
l84.001 -0.000976562c10.667 0 20 2 28 6c60 5.33301 100 28.833 120 70.5s30 93.834 30 156.501c0 78 -13.333 135.167 -40 171.5s-74.334 54.5 -143.001 54.5h-79v-459z" />
    <glyph glyph-name="afii10019" unicode="&#x412;" horiz-adv-x="880" 
d="M106 0l-0.000976562 1425h312c125.333 0 216.333 -33 273 -99s85 -162 85 -288c0 -65.333 -11.167 -122.5 -33.5 -171.5s-61.5 -85.833 -117.5 -110.5v-11c62.667 -20.667 105.5 -59.5 128.5 -116.5s34.5 -122.5 34.5 -196.5c0 -148.667 -31.667 -257.834 -95 -327.501
s-160.666 -104.5 -291.999 -104.5h-295zM327.999 207.001l87.999 -0.000976562c35.333 0 63.5 6.5 84.5 19.5s37.333 30.333 49 52s19.334 47.667 23.001 78s5.5 61.833 5.5 94.5c0 66.667 -12.333 116.334 -37 149.001s-67.667 49 -129 49h-84v-442zM327.998 850h71
c57.333 0 99.333 15.667 126 47s40 77 40 137c0 65.333 -13 112.5 -39 141.5s-69 43.5 -129 43.5h-69v-369z" />
    <glyph glyph-name="afii10020" unicode="&#x413;" horiz-adv-x="770" 
d="M106 0v1425h617v-208h-395v-1217h-222z" />
    <glyph glyph-name="afii10021" unicode="&#x414;" horiz-adv-x="993" 
d="M16 184l84 19c38 40.667 64 88 78 142s22.333 125.333 25 214l24 866h637v-1224h90v-471h-186v270h-565v-270h-187v454zM338 201l307 -0.000976562v1020h-227l-17 -660c-2.66699 -82 -8 -152.667 -16 -212s-23.667 -108.666 -47 -147.999z" />
    <glyph glyph-name="afii10022" unicode="&#x415;" horiz-adv-x="778" 
d="M106 0v1425h633v-208h-411v-388h358v-211h-358v-409h411v-209h-633z" />
    <glyph glyph-name="afii10024" unicode="&#x416;" horiz-adv-x="1392" 
d="M41 0l98 475c15.333 69.333 37.333 125.333 66 168s69 73.334 121 92.001v4c-39.333 16.667 -74.5 46.5 -105.5 89.5s-53.167 99.167 -66.5 168.5l-45.5 212l-45.5 214h205l88 -403c8 -38 19 -69.667 33 -95s29.167 -45.5 45.5 -60.5s33.666 -25.667 51.999 -32
s36.5 -9.5 54.5 -9.5h45v602h221v-602h37c46.667 0 86.334 13.667 119.001 41s57 79.333 73 156c2.66699 13.333 8.5 39.166 17.5 77.499l28 124l26.5 124l16 77.5h205c-13.333 -72.667 -27.833 -144 -43.5 -214l-46.5 -212c-15.333 -69.333 -38 -125.5 -68 -168.5
s-64.667 -72.833 -104 -89.5l-2 -2c52 -19.333 92.667 -50.333 122 -93s51.333 -99 66 -169l99 -475h-219l-84 418c-15.333 76.667 -38.666 130 -69.999 160s-71 45 -119 45h-53v-623h-221v623h-54c-54.667 0 -95.834 -15.5 -123.501 -46.5s-49.167 -83.833 -64.5 -158.5
l-40.5 -209c-13.667 -70 -28.167 -139.667 -43.5 -209h-219z" />
    <glyph glyph-name="afii10025" unicode="&#x417;" horiz-adv-x="827" 
d="M55 1100c6.66699 106.667 41.1709 189.667 103.504 249s143.833 89 244.5 89c228 0 342 -127 342 -381c0 -23.333 -1.33301 -50 -4 -80s-8.33398 -60.333 -17.001 -91s-20.834 -59 -36.501 -85s-36.5 -46 -62.5 -60v-6c24.667 -12 45.167 -29.333 61.5 -52
s29.166 -48 38.499 -76s16.166 -58 20.499 -90s6.5 -65 6.5 -99c0 -148.667 -29.833 -257.5 -89.5 -326.5s-147.5 -103.5 -263.5 -103.5c-105.333 0 -188.666 29.333 -249.999 88s-92 142.667 -92 252l217 43c1.33301 -62.667 13 -106.667 35 -132s52.667 -38 92 -38
s69.666 17.667 90.999 53s32 92 32 170c0 146 -41.667 219 -125 219h-86v188h90c42 0 73 19.5 93 58.5s30 92.167 30 159.5c0 56 -11.5 99.333 -34.5 130s-55.167 46 -96.5 46c-44 0 -75.833 -16.5 -95.5 -49.5s-30.167 -73.833 -31.5 -122.5z" />
    <glyph glyph-name="afii10026" unicode="&#x418;" horiz-adv-x="931" 
d="M98 0v1425h215v-903h9l296 903h216v-1425h-218v893h-6l-299 -893h-213z" />
    <glyph glyph-name="afii10027" unicode="&#x419;" horiz-adv-x="931" 
d="M98 0v1425h215v-903h9l296 903h216v-1425h-218v893h-6l-299 -893h-213zM182 1749h162c1.33301 -15.333 5.83301 -30.833 13.5 -46.5s17.167 -30.334 28.5 -44.001s24.666 -24.834 39.999 -33.501s32.333 -13 51 -13c20.667 0 38.834 4.33301 54.501 13
s29 19.834 40 33.501s19.5 28.334 25.5 44.001s9 31.167 9 46.5h162c-2.66699 -28.667 -10.167 -59.667 -22.5 -93s-30.5 -64 -54.5 -92s-53.333 -51.333 -88 -70s-76.667 -28 -126 -28c-53.333 0 -98.333 9.33301 -135 28s-66.667 42 -90 70s-40.5 58.667 -51.5 92
s-17.167 64.333 -18.5 93z" />
    <glyph glyph-name="afii10028" unicode="&#x41a;" horiz-adv-x="899" 
d="M106 0l-0.00195312 1425h220v-602h45c49.333 0 89.666 14.333 120.999 43s55 80 71 154l17.5 76.5c9 39 18 80.667 27 125l25.5 125c8 39 13.333 64.5 16 76.5h207l-45.5 -214l-44.5 -212c-15.333 -69.333 -38.333 -125.5 -69 -168.5s-65.667 -72.833 -105 -89.5v-4
c52 -19.333 92.333 -50 121 -92s50.334 -98 65.001 -168c18 -80.667 34.833 -160.167 50.5 -238.5s32.5 -157.166 50.5 -236.499h-222l-40.5 208.5c-13.667 69.667 -28.167 139.5 -43.5 209.5c-15.333 76.667 -38.166 130 -68.499 160s-70.166 45 -119.499 45h-59v-623h-220
z" />
    <glyph glyph-name="afii10029" unicode="&#x41b;" horiz-adv-x="927" 
d="M10 127c35.333 20.667 64.3311 43.166 86.998 67.499s40.834 54.333 54.501 90s22.834 79.167 27.501 130.5s7 115 7 191v819h631v-1425h-219v1217h-215v-549c0 -114.667 -4.16699 -211 -12.5 -289s-23.333 -143.667 -45 -197s-51 -96.666 -88 -129.999
s-84.833 -63 -143.5 -89z" />
    <glyph glyph-name="afii10030" unicode="&#x41c;" horiz-adv-x="1173" 
d="M100 0v1425h213l156 -405l113 -309h10l115 317l153 397h213v-1425h-221v821h-8l-90 -254l-101 -256h-133l-102 264l-88 250h-11v-825h-219z" />
    <glyph glyph-name="afii10031" unicode="&#x41d;" horiz-adv-x="907" 
d="M106 0v1425h220v-596h256v596h219v-1425h-219v623h-256v-623h-220z" />
    <glyph glyph-name="afii10032" unicode="&#x41e;" horiz-adv-x="880" 
d="M94 342l0.000976562 717c0 56 6.5 107.167 19.5 153.5s33.167 86.166 60.5 119.499s63.166 59.333 107.499 78s97.166 28 158.499 28c65.333 0 120.333 -8.66699 165 -26s80.334 -42.333 107.001 -75s45.667 -72.167 57 -118.5s17 -98.833 17 -157.5v-696
c0 -124 -28 -217.833 -84 -281.5s-144 -95.5 -264 -95.5s-207.333 30.333 -262 91s-82 148.334 -82 263.001zM315.001 338c0 -36.667 9.33301 -69.668 28 -99.001s50.334 -44 95.001 -44c45.333 0 77.5 15.333 96.5 46s28.5 67.667 28.5 111v725
c0 39.333 -8.5 74.833 -25.5 106.5s-49.5 47.5 -97.5 47.5c-26 0 -47.167 -5.83301 -63.5 -17.5s-28.833 -26 -37.5 -43s-14.834 -36.167 -18.501 -57.5s-5.5 -40.666 -5.5 -57.999v-717z" />
    <glyph glyph-name="afii10033" unicode="&#x41f;" horiz-adv-x="880" 
d="M106 0v1425h668v-1425h-221v1212h-225v-1212h-222z" />
    <glyph glyph-name="afii10034" unicode="&#x420;" horiz-adv-x="843" 
d="M106 0v1425h316c131.333 0 227.333 -34 288 -102s91 -178 91 -330c0 -66.667 -6.16699 -127.334 -18.5 -182.001s-33.5 -101.5 -63.5 -140.5s-69.333 -69.333 -118 -91s-109.667 -32.5 -183 -32.5h-90v-547h-222zM328 758.001h78c68 0 115.333 19.333 142 58
s40 97 40 175c0 69.333 -12.667 124.333 -38 165s-72 61 -140 61h-82v-459z" />
    <glyph glyph-name="afii10035" unicode="&#x421;" horiz-adv-x="831" 
d="M94 338l0.00195312 710.999c0 53.333 5.83301 103.5 17.5 150.5s31.167 88.167 58.5 123.5s63.166 63.333 107.499 84s98.5 31 162.5 31c58.667 0 109.167 -8.16699 151.5 -24.5s77.5 -39.333 105.5 -69s48.5 -64.5 61.5 -104.5s19.5 -84 19.5 -132l-215 -55
c0 52 -9.83301 94.333 -29.5 127s-51.5 49 -95.5 49c-26 0 -47.167 -5.5 -63.5 -16.5s-28.833 -25 -37.5 -42s-14.834 -35.5 -18.501 -55.5s-5.5 -38.667 -5.5 -56v-723c0 -13.333 1.5 -28.333 4.5 -45s8.83301 -32.167 17.5 -46.5s20.834 -26.166 36.501 -35.499
s35.834 -14 60.501 -14c82 0 123.667 58.667 125 176c36.667 -6.66699 73.5 -12.5 110.5 -17.5l110.5 -15.5c-2.66699 -108 -32.334 -193.333 -89.001 -256s-140.334 -94 -251.001 -94c-117.333 0 -204 29.667 -260 89s-84 146.333 -84 261z" />
    <glyph glyph-name="afii10036" unicode="&#x422;" horiz-adv-x="696" 
d="M6 1219v206h682v-206h-229v-1219h-223v1219h-230z" />
    <glyph glyph-name="afii10037" unicode="&#x423;" horiz-adv-x="796" 
d="M12 1423l215 -0.00195312l176 -737h11l170 739h207l-287 -1101c-19.333 -78 -41 -139.5 -65 -184.5s-49.167 -79.167 -75.5 -102.5s-54.666 -38.333 -84.999 -45s-61.833 -10.667 -94.5 -12h-80v178h52c34 0 61.5 11.167 82.5 33.5s39.167 57.5 54.5 105.5
c1.33301 1.33301 2.66602 5.33301 3.99902 12s3 13.834 5 21.501s4 14.834 6 21.501s3.66699 11.667 5 15z" />
    <glyph glyph-name="afii10038" unicode="&#x424;" horiz-adv-x="1134" 
d="M90 526l0.000976562 461.001c0 58.667 10.667 110.5 32 155.5s49.333 83.333 84 115s74.167 55.667 118.5 72s89.166 24.5 134.499 24.5v71h219l2 -71c45.333 -2.66699 89.833 -12.334 133.5 -29.001s82.834 -40.334 117.501 -71.001s62.667 -68.5 84 -113.5
s32 -96.833 32 -155.5v-506c0 -60 -11 -111.833 -33 -155.5s-50.333 -80.5 -85 -110.5s-74 -53.167 -118 -69.5s-88.333 -26.5 -133 -30.5v-113h-219v113h-2c-66.667 6.66699 -123.334 21.167 -170.001 43.5s-84.667 51.333 -114 87s-50.5 77.334 -63.5 125.001
s-19.5 100.167 -19.5 157.5zM299.001 459.001c0 -26 4.83301 -49 14.5 -69s22 -36.833 37 -50.5s32 -24.167 51 -31.5s38.167 -11.666 57.5 -12.999v879c-49.333 -6.66699 -88.333 -23.834 -117 -51.501s-43 -67.167 -43 -118.5v-545zM678.001 1174l2 -879
c18 2.66699 36.5 8.16699 55.5 16.5s36.333 19.333 52 33s28.334 30 38.001 49s14.5 40.833 14.5 65.5v545c0 52 -15.333 92.167 -46 120.5s-69.334 44.833 -116.001 49.5z" />
    <glyph glyph-name="afii10039" unicode="&#x425;" horiz-adv-x="847" 
d="M12 0l289 745l-134.5 339l-133.5 341h248l69.5 -214l69.5 -214l8 2l135 426h250l-276 -680l148.5 -373.5l148.5 -371.5h-248l-162 489h-4l-162 -489h-246z" />
    <glyph glyph-name="afii10040" unicode="&#x426;" horiz-adv-x="913" 
d="M104 0v1425h222v-1218h247v1218h222v-1218h92v-477h-185v270h-598z" />
    <glyph glyph-name="afii10041" unicode="&#x427;" horiz-adv-x="878" 
d="M82 877l0.00195312 548h219v-520c0 -60 11.667 -100.167 35 -120.5s56.666 -30.5 99.999 -30.5c16.667 0 35.167 2 55.5 6s40.166 10 59.499 18v647h221v-1425h-221v582c-27.333 -8 -55 -13.833 -83 -17.5s-54.333 -5.5 -79 -5.5c-48 0 -90.667 5.5 -128 16.5
s-69.333 29.167 -96 54.5s-47.167 58 -61.5 98s-21.5 89.667 -21.5 149z" />
    <glyph glyph-name="afii10042" unicode="&#x428;" horiz-adv-x="1298" 
d="M106 0v1425h222v-1218h211v1218h221v-1218h213v1218h219v-1425h-1086z" />
    <glyph glyph-name="afii10043" unicode="&#x429;" horiz-adv-x="1325" 
d="M104 0v1425h222v-1218h211v1218h221v-1218h213v1218h221v-1218h94v-477h-186v270h-996z" />
    <glyph glyph-name="afii10044" unicode="&#x42a;" horiz-adv-x="1054" 
d="M27 1217l0.00195312 207.998h510v-546h94c74 0 135.167 -10 183.5 -30s87.166 -48.667 116.499 -86s50.166 -82.666 62.499 -135.999s18.5 -112.666 18.5 -177.999c0 -148.667 -30.833 -260.667 -92.5 -336s-156.5 -113 -284.5 -113h-320v1217h-288zM537.002 210.998h84
c68 0 114.333 21.167 139 63.5s37 98.833 37 169.5c0 78 -13.333 134.833 -40 170.5s-73.667 53.5 -141 53.5h-79v-457z" />
    <glyph glyph-name="afii10045" unicode="&#x42b;" horiz-adv-x="1243" 
d="M104 0l0.00195312 1425h220v-548h94c74 0 135.167 -10 183.5 -30s87.166 -48.333 116.499 -85s50.166 -81.667 62.499 -135s18.5 -113.666 18.5 -180.999c0 -148.667 -30.833 -260.167 -92.5 -334.5s-156.5 -111.5 -284.5 -111.5h-318zM324.002 208.999h84.001
c68 0 114.667 21.833 140 65.5s38 99.5 38 167.5c0 78 -13.333 135.167 -40 171.5s-74.334 54.5 -143.001 54.5h-79v-459zM909.003 -0.000976562v1425h221v-1425h-221z" />
    <glyph glyph-name="afii10046" unicode="&#x42c;" horiz-adv-x="843" 
d="M104 0l0.00195312 1425h220v-548h94c74 0 135.167 -10 183.5 -30s87.166 -48.333 116.499 -85s50.166 -81.667 62.499 -135s18.5 -113.666 18.5 -180.999c0 -148.667 -30.833 -260.167 -92.5 -334.5s-156.5 -111.5 -284.5 -111.5h-318zM324.002 208.999h84.001
c68 0 114.667 21.833 140 65.5s38 99.5 38 167.5c0 78 -13.333 135.167 -40 171.5s-74.334 54.5 -143.001 54.5h-79v-459z" />
    <glyph glyph-name="afii10047" unicode="&#x42d;" horiz-adv-x="817" 
d="M49 317l218.999 34.9971c4 -106.667 45.667 -159.667 125 -159c24.667 0 44.834 5 60.501 15s28 22.833 37 38.5s14.833 32.834 17.5 51.501s4 35.334 4 50.001v270h-285v216h285v237c0 42 -8.16699 78.833 -24.5 110.5s-49.166 47.5 -98.499 47.5
c-39.333 0 -69.333 -14.333 -90 -43s-32.334 -69 -35.001 -121l-215 37c4 102.667 35.333 184.334 94 245.001s142.667 91 252 91c66.667 0 122 -10.333 166 -31s78.5 -48.334 103.5 -83.001s42.333 -75.167 52 -121.5s14.5 -96.166 14.5 -149.499v-701
c0 -114.667 -26.667 -204 -80 -268s-140 -96 -260 -96c-106.667 0 -189 29.333 -247 88s-89.667 139 -95 241z" />
    <glyph glyph-name="afii10048" unicode="&#x42e;" horiz-adv-x="1202" 
d="M106 0l-0.00195312 1425h222v-596h121v228c0 56 6 107.167 18 153.5s31 86.166 57 119.499s59.833 59.333 101.5 78s91.834 28 150.501 28c62.667 0 115.167 -8.66699 157.5 -26s76.5 -42.333 102.5 -75s44.5 -72.167 55.5 -118.5s16.5 -98.833 16.5 -157.5v-694
c0 -124 -26.667 -217.833 -80 -281.5s-137.333 -95.5 -252 -95.5c-113.333 0 -196.166 30.333 -248.499 91s-78.5 148.334 -78.5 263.001v281h-121v-623h-222zM658.998 338c0 -36.667 8.66797 -69.666 26.001 -98.999s47.666 -44 90.999 -44c44 0 74.833 15.333 92.5 46
s26.5 67.667 26.5 111v723c0 19.333 -1.66699 38.166 -5 56.499s-9.83301 34.666 -19.5 48.999s-22 26 -37 35s-34.167 13.5 -57.5 13.5c-24.667 0 -44.5 -5.83301 -59.5 -17.5s-26.833 -26 -35.5 -43s-14.5 -36.167 -17.5 -57.5s-4.5 -40.666 -4.5 -57.999v-715z" />
    <glyph glyph-name="afii10049" unicode="&#x42f;" horiz-adv-x="897" 
d="M53 0l79.999 453.002c9.33301 48 24.333 91.333 45 130s49.334 69 86.001 91c-65.333 27.333 -110.333 68.666 -135 123.999s-37 121.666 -37 198.999c0 140.667 33.833 247.167 101.5 319.5s160.167 108.5 277.5 108.5h326v-1425h-222v608h-57c-38 0 -73 -15 -105 -45
s-55 -83.333 -69 -160l-68 -403h-223zM308.999 997.002c0 -69.333 16.834 -117.333 50.501 -144s76.167 -40 127.5 -40h88v404h-86c-66.667 0 -113.334 -20.167 -140.001 -60.5s-40 -93.5 -40 -159.5z" />
    <glyph glyph-name="afii10065" unicode="&#x430;" horiz-adv-x="788" 
d="M57 295c0 39.333 5.16699 78.168 15.5 116.501s27.166 72.166 50.499 101.499s54 53.166 92 71.499s85.667 27.5 143 27.5h129v111c0 30 -7.16699 53.5 -21.5 70.5s-41.166 25.5 -80.499 25.5c-20.667 0 -41.167 -6.83301 -61.5 -20.5s-33.833 -38.167 -40.5 -73.5
l-201 61c18 75.333 53.833 134.166 107.5 176.499s123.5 63.5 209.5 63.5c102.667 0 180.334 -23.167 233.001 -69.5s79 -124.166 79 -233.499v-723h-224v78l-6 2c-22 -31.333 -49.333 -54.5 -82 -69.5s-67.334 -22.5 -104.001 -22.5c-45.333 0 -83.333 8.16699 -114 24.5
s-55.167 38.5 -73.5 66.5s-31.333 60.333 -39 97s-11.5 76.334 -11.5 119.001zM274 307.002c0 -35.333 9.33301 -62.5 28 -81.5s43.667 -28.5 75 -28.5c35.333 0 62.5 11.167 81.5 33.5s28.5 52.833 28.5 91.5v124h-88c-31.333 0 -60 -10.167 -86 -30.5
s-39 -56.5 -39 -108.5z" />
    <glyph glyph-name="afii10066" unicode="&#x431;" horiz-adv-x="778" 
d="M68 479l0.000976562 174c0 109.333 4 203 12 281s21.667 143.833 41 197.5s44.333 97.667 75 132s69 62.5 115 84.5c28.667 13.333 53.667 24.166 75 32.499l62.5 24.5l67.5 27.5l92 40.5l74 -158c-28.667 -16.667 -54.334 -30 -77.001 -40l-65.5 -28.5l-63.5 -28
c-21.333 -9.66699 -44.666 -21.167 -69.999 -34.5c-44 -23.333 -75.5 -57.833 -94.5 -103.5s-29.833 -103.5 -32.5 -173.5h2c23.333 24.667 49.166 41.5 77.499 50.5s51.5 13.5 69.5 13.5c75.333 0 132.333 -17.167 171 -51.5s66.334 -74.5 83.001 -120.5
c6.66699 -18 11.667 -39.667 15 -65s6.16602 -52.666 8.49902 -81.999s3.83301 -59.333 4.5 -90s1 -61 1 -91v-18c0 -38 -0.333008 -70.833 -1 -98.5s-3.33398 -59.834 -8.00098 -96.501c-6.66699 -56 -20.5 -101.667 -41.5 -137s-46.833 -63 -77.5 -83
s-64.5 -33.667 -101.5 -41s-73.833 -11 -110.5 -11c-44 0 -82 5.66699 -114 17s-59.667 26.333 -83 45s-42.166 40.334 -56.499 65.001s-24.833 49.667 -31.5 75c-8 34 -13 78 -15 132s-3 107 -3 159zM287.001 453c0 -40.667 0.332031 -78.498 0.999023 -113.498
s4.33398 -62.167 11.001 -81.5c12 -45.333 43.333 -68 94 -68c20.667 0 39.5 7.66699 56.5 23s28.167 33.666 33.5 54.999c5.33301 20.667 8.83301 47.667 10.5 81s2.5 72 2.5 116v47c0 40.667 -0.666992 76.5 -2 107.5s-5 55.833 -11 74.5
c-6.66699 23.333 -17.167 41.5 -31.5 54.5s-33.833 19.5 -58.5 19.5c-28.667 0 -53.334 -13.667 -74.001 -41c-5.33301 -6.66699 -10 -15.167 -14 -25.5s-7 -23.333 -9 -39s-3.66699 -35.834 -5 -60.501s-2.66602 -54.667 -3.99902 -90v-59z" />
    <glyph glyph-name="afii10067" unicode="&#x432;" horiz-adv-x="804" 
d="M88 0v1012h291c116 0 201.667 -24.333 257 -73s83 -118.667 83 -210c0 -40.667 -8.5 -77.834 -25.5 -111.501s-43.5 -61.167 -79.5 -82.5l2 -3c44 -19.333 73.833 -48.666 89.5 -87.999s23.5 -83 23.5 -131c0 -108 -29.333 -187.167 -88 -237.5s-148 -75.5 -268 -75.5
h-285zM311 199l75.999 0.000976562c28.667 0 51.167 3.33301 67.5 10s29.333 16.167 39 28.5s15.834 26.333 18.501 42s4 33.167 4 52.5c0 35.333 -9.5 63.166 -28.5 83.499s-52.5 30.5 -100.5 30.5h-76v-247zM310.999 612.001l60 -0.000976562
c48 0 81.833 9.33301 101.5 28s29.5 44.334 29.5 77.001s-8.5 57.167 -25.5 73.5s-46.833 25.833 -89.5 28.5h-76v-207z" />
    <glyph glyph-name="afii10068" unicode="&#x433;" horiz-adv-x="694" 
d="M88 0v1014h571v-199h-348v-815h-223z" />
    <glyph glyph-name="afii10069" unicode="&#x434;" horiz-adv-x="915" 
d="M35 184l84 19.001c13.333 18 24.5 36.167 33.5 54.5s16.5 38.666 22.5 60.999s10.5 47.833 13.5 76.5s5.16699 63 6.5 103l16 516h577v-815h86v-435h-184v236h-469v-236h-186v420zM342 199.001l225 -0.00195312v616h-161l-11 -305
c-2.66699 -83.333 -8 -148.166 -16 -194.499s-20.333 -85.166 -37 -116.499z" />
    <glyph glyph-name="afii10070" unicode="&#x435;" horiz-adv-x="770" 
d="M68 500c0 65.333 2.33203 130.831 6.99902 196.498s13.667 116.167 27 151.5c19.333 54.667 52.833 98.334 100.5 131.001s111.167 49 190.5 49c101.333 0 177.833 -28 229.5 -84s77.5 -135 77.5 -237v-252h-413c0 -38 0.333008 -74.833 1 -110.5
s3.66699 -63.167 9 -82.5c13.333 -46.667 43.333 -69.667 90 -69c54.667 0 85.334 38.667 92.001 116l221 -35c-5.33301 -90 -34.666 -160.167 -87.999 -210.5s-129 -75.5 -227 -75.5c-48 0 -89 5.83301 -123 17.5s-63 27 -87 46s-42.833 40.833 -56.5 65.5
s-23.834 49 -30.501 73c-4 16.667 -7.33301 37.334 -10 62.001s-4.66699 51 -6 79s-2.33301 56.667 -3 86s-1 57 -1 83zM288.999 605.998h188v86c0 32.667 -5.83301 62 -17.5 88s-35.834 39 -72.501 39c-39.333 0 -66.666 -19.667 -81.999 -59
c-5.33301 -12 -9 -31.333 -11 -58s-3.66699 -58.667 -5 -96z" />
    <glyph glyph-name="afii10072" unicode="&#x436;" horiz-adv-x="1220" 
d="M31 0l39.502 162.999l38.5 163c12 49.333 29 91.666 51 126.999s54 59 96 71v4c-34 10.667 -62.667 32.834 -86 66.501s-40.333 74.5 -51 122.5l-35.5 147.5l-34.5 147.5h207l61 -267c8 -32.667 17.5 -58.834 28.5 -78.501s23 -34.667 36 -45s27 -16.833 42 -19.5
s30.167 -4 45.5 -4h31v412h221v-412h31c24.667 0 45.5 3 62.5 9s31.667 16.167 44 30.5s22.5 33.5 30.5 57.5s16 53 24 87l52 230h206c-10.667 -49.333 -21.834 -98.5 -33.501 -147.5l-35.5 -147.5c-10.667 -48 -27.667 -88.667 -51 -122s-52.666 -55.666 -87.999 -66.999
v-4c42 -13.333 74.333 -37.833 97 -73.5s40 -77.167 52 -124.5c12 -54.667 24.833 -109 38.5 -163l39.5 -163h-217c-8 44 -16.5 87.167 -25.5 129.5l-27.5 128.5c-6.66699 34 -14.834 61.333 -24.501 82s-20.667 36.334 -33 47.001s-26.333 18.167 -42 22.5
s-33.834 6.5 -54.501 6.5h-45v-416h-221v416h-45c-22 0 -40.833 -2.16699 -56.5 -6.5s-29.667 -12.166 -42 -23.499s-23 -27.333 -32 -48s-16.833 -47.334 -23.5 -80.001c-8 -44 -16.833 -87 -26.5 -129s-18.5 -85 -26.5 -129h-217z" />
    <glyph glyph-name="afii10073" unicode="&#x437;" horiz-adv-x="745" 
d="M37 258l214.999 32.999c4 -72.667 37.333 -109 100 -109c27.333 0 50.333 10.333 69 31s28 50.667 28 90c0 44 -7.66699 77.833 -23 101.5s-40.666 35.5 -75.999 35.5h-76v166h80c62.667 0 94.334 40.333 95.001 121c0 31.333 -8.33301 56.5 -25 75.5
s-40.667 28.5 -72 28.5s-55.5 -10.5 -72.5 -31.5s-26.833 -47.167 -29.5 -78.5l-203 39c8 82 39 146.167 93 192.5s127.333 69.5 220 69.5c102.667 0 180.667 -24.167 234 -72.5s80 -120.5 80 -216.5c0 -39.333 -7.16699 -79.166 -21.5 -119.499s-43.5 -69.5 -87.5 -87.5v-4
c42 -18 70.333 -45 85 -81s22 -82.667 22 -140c0 -106.667 -29.667 -185.167 -89 -235.5s-138.333 -75.5 -237 -75.5c-94 0 -167.333 23.167 -220 69.5s-82.334 112.5 -89.001 198.5z" />
    <glyph glyph-name="afii10074" unicode="&#x438;" horiz-adv-x="860" 
d="M84 0v1012h217v-609h4l248 609h221v-1012h-221v586h-4l-250 -586h-215z" />
    <glyph glyph-name="afii10075" unicode="&#x439;" horiz-adv-x="860" 
d="M84 0v1012h217v-609h4l248 609h221v-1012h-221v586h-4l-250 -586h-215zM139 1407h162c1.33301 -15.333 5.83301 -30.833 13.5 -46.5s17.167 -30.334 28.5 -44.001s24.666 -24.834 39.999 -33.501s32.333 -13 51 -13c20.667 0 38.834 4.33301 54.501 13
s29 19.834 40 33.501s19.5 28.334 25.5 44.001s9 31.167 9 46.5h162c-2.66699 -28.667 -10.167 -59.667 -22.5 -93s-30.5 -64 -54.5 -92s-53.333 -51.333 -88 -70s-76.667 -28 -126 -28c-53.333 0 -98.333 9.33301 -135 28s-66.667 42 -90 70s-40.5 58.667 -51.5 92
s-17.167 64.333 -18.5 93z" />
    <glyph glyph-name="afii10076" unicode="&#x43a;" horiz-adv-x="806" 
d="M78 0v1010h221v-412h45c15.333 0 30.5 1.33301 45.5 4s29.333 9.16699 43 19.5s25.834 25.333 36.501 45s19.667 45.834 27 78.501l61 267h209l-35.5 -147.5l-34.5 -147.5c-10.667 -48 -28 -88.667 -52 -122s-53.667 -55.666 -89 -66.999v-4
c45.333 -10.667 78.5 -34.167 99.5 -70.5s37.833 -78.833 50.5 -127.5l79 -326h-217l-55 258c-6.66699 34 -14.5 61.333 -23.5 82s-19.667 36.334 -32 47.001s-26.333 18.167 -42 22.5s-33.834 6.5 -54.501 6.5h-61v-416h-221z" />
    <glyph glyph-name="afii10077" unicode="&#x43b;" horiz-adv-x="823" 
d="M6 137c28.667 15.333 52.499 30.5 71.499 45.5s34.333 32.333 46 52s20.334 43.5 26.001 71.5s8.5 63.333 8.5 106v602h583v-1014h-221v815h-162v-407c0 -70.667 -6 -131 -18 -181s-30 -91.833 -54 -125.5s-53.5 -61 -88.5 -82s-74.833 -38.5 -119.5 -52.5z" />
    <glyph glyph-name="afii10078" unicode="&#x43c;" horiz-adv-x="1056" 
d="M86 0v1014h211l139 -297l90 -193h4l91 195l141 295h209v-1014h-226v541h-4l-61 -144l-86 -182h-131l-86 180l-62 135h-6v-530h-223z" />
    <glyph glyph-name="afii10079" unicode="&#x43d;" horiz-adv-x="817" 
d="M88 0v1012h223v-408h195v408h223v-1012h-223v428h-195v-428h-223z" />
    <glyph glyph-name="afii10080" unicode="&#x43e;" horiz-adv-x="782" 
d="M68 427l0.00195312 71c0 32.667 0.666992 66.334 2 101.001s3.33301 67.667 6 99s6 60.666 10 87.999s9.33301 49.333 16 66c19.333 52 53.5 94.333 102.5 127s113.167 49 192.5 49c54.667 0 100.834 -7.16699 138.501 -21.5s68.834 -33.833 93.501 -58.5
s42.667 -53.334 54 -86.001s18.666 -68 21.999 -106c5.33301 -39.333 8.33301 -83 9 -131s1 -91.667 1 -131v-54c0 -31.333 -1 -62.666 -3 -93.999s-4.33301 -62 -7 -92c-6.66699 -56 -21.334 -101.833 -44.001 -137.5s-49.334 -63 -80.001 -82
s-63.834 -31.833 -99.501 -38.5s-70.5 -10 -104.5 -10c-48 0 -89.333 6.5 -124 19.5s-64 30.333 -88 52s-42.5 46.5 -55.5 74.5s-22.167 57.667 -27.5 89c-2.66699 18 -5 38.167 -7 60.5s-3.66699 45.833 -5 70.5s-2 49.667 -2 75zM287.002 463
c0 -36.667 0.334961 -72.165 1.00195 -106.498s3.66699 -61.833 9 -82.5c6.66699 -23.333 17.5 -42.666 32.5 -57.999s36.833 -23 65.5 -23c22 0 40.833 6.33301 56.5 19s26.167 28.667 31.5 48c1.33301 5.33301 3.16602 15.833 5.49902 31.5s4.16602 34.834 5.49902 57.501
s2.33301 47 3 73s1 52 1 78c0 48 -0.666992 94.5 -2 139.5s-5 78.833 -11 101.5c-2.66699 15.333 -7.33398 27.666 -14.001 36.999c-15.333 30 -40.666 45 -75.999 45c-32.667 0 -57 -12.333 -73 -37c-9.33301 -16.667 -16.5 -34.334 -21.5 -53.001
s-8.5 -40.334 -10.5 -65.001s-3 -52.334 -3 -83.001v-106v-16z" />
    <glyph glyph-name="afii10081" unicode="&#x43f;" 
d="M96 0v1014h639v-1014h-223v817h-195v-817h-221z" />
    <glyph glyph-name="afii10082" unicode="&#x440;" horiz-adv-x="784" 
d="M70 -391l-0.00195312 1405h217v-76l6 -4c19.333 34 43.666 57.833 72.999 71.5s63 20.5 101 20.5c27.333 0 54.333 -3.66699 81 -11s50.834 -20.666 72.501 -39.999s40.334 -46 56.001 -80s26.5 -77.667 32.5 -131c2.66699 -30 4.66699 -67.5 6 -112.5
s2 -90.833 2 -137.5c0 -60 -1.66699 -121 -5 -183s-10 -113 -20 -153c-5.33301 -24.667 -13.166 -48.167 -23.499 -70.5s-24.333 -42.5 -42 -60.5s-40.167 -32.333 -67.5 -43s-60 -16 -98 -16c-28.667 0 -57.667 5 -87 15s-55 28 -77 54h-6v-448h-221zM288.998 368.999
c0 -23.333 0.334961 -44.998 1.00195 -64.998s3.66699 -35.333 9 -46c15.333 -38 44.666 -57 87.999 -57c36.667 0 62.667 15.667 78 47c9.33301 22 15.666 56.167 18.999 102.5s5 102.166 5 167.499c0 61.333 -1.33301 113.166 -4 155.499s-8.66699 72.5 -18 90.5
c-11.333 31.333 -38 47 -80 47c-32.667 0 -57.167 -11.333 -73.5 -34s-24.5 -51.667 -24.5 -87v-321z" />
    <glyph glyph-name="afii10083" unicode="&#x441;" horiz-adv-x="733" 
d="M68 498c0 32.667 0.663086 66.3311 1.99609 100.998s3.33301 67.667 6 99s6 60.666 10 87.999s9.33301 49.333 16 66c20.667 52 54.5 94.333 101.5 127s110.167 49 189.5 49c102.667 0 178.167 -28 226.5 -84s72.5 -133 72.5 -231l-109.5 -12.5
c-37.667 -4.33301 -74.167 -9.16602 -109.5 -14.499c0 48 -7.83301 82.833 -23.5 104.5s-36.5 32.5 -62.5 32.5c-40.667 0 -68.667 -20.333 -84 -61c-4 -13.333 -7.66699 -40.666 -11 -81.999s-5 -89 -5 -143v-74c0 -39.333 0.333008 -77.833 1 -115.5
s4.33398 -66.167 11.001 -85.5c6.66699 -22 16.834 -39.5 30.501 -52.5s32.834 -19.5 57.501 -19.5c57.333 0 86 44 86 132c36.667 -6.66699 73.5 -12.167 110.5 -16.5s73.833 -9.83301 110.5 -16.5c-1.33301 -95.333 -28.166 -169.333 -80.499 -222
s-129.166 -79 -230.499 -79c-46.667 0 -87 5.33301 -121 16s-63 25.667 -87 45s-43.167 41 -57.5 65s-24.833 49.333 -31.5 76c-4 16.667 -7.33301 37.334 -10 62.001s-4.33398 51 -5.00098 79l-2 86c-0.666992 29.333 -1 56.333 -1 81z" />
    <glyph glyph-name="afii10084" unicode="&#x442;" horiz-adv-x="626" 
d="M-2 815v199h631v-199h-205v-815h-223v815h-203z" />
    <glyph glyph-name="afii10085" unicode="&#x443;" horiz-adv-x="735" 
d="M8 1012h235.998l63 -375l55 -295h9l55 295l74 375h227l-293 -1168c-19.333 -75.333 -49.666 -134 -90.999 -176s-101.666 -63 -180.999 -63h-78v194h45c30 0 54.5 10 73.5 30s35.5 58.667 49.5 116l14 63z" />
    <glyph glyph-name="afii10086" unicode="&#x444;" horiz-adv-x="1054" 
d="M70 498c0 65.333 2.33105 124.329 6.99805 176.996s13.667 99.334 27 140.001c20.667 61.333 59.334 109.5 116.001 144.5s124 56.5 202 64.5v391h209v-391c95.333 -5.33301 169 -28.833 221 -70.5s86.667 -90.5 104 -146.5c10.667 -34 17.834 -78.667 21.501 -134
s5.5 -112.333 5.5 -171v-17c0 -38 -0.333008 -71.333 -1 -100s-3 -60 -7 -94c-10.667 -79.333 -36.667 -141.666 -78 -186.999c-30 -34 -67.167 -60.167 -111.5 -78.5s-94.5 -30.833 -150.5 -37.5v-379h-213v377c-101.333 10.667 -177.833 35.834 -229.5 75.501
s-87.167 96.834 -106.5 171.501c-6.66699 35.333 -11 76.333 -13 123s-3 94 -3 142zM288.998 411.996c2.66699 -38 4.66797 -71.1641 6.00098 -99.4971s5.33301 -50.5 12 -66.5c8 -20.667 22 -36.167 42 -46.5s43.667 -16.833 71 -19.5
c0 105.333 0.333008 213.666 1 324.999s1 219.333 1 324c-58.667 -10.667 -97 -37.667 -115 -81c-6.66699 -16.667 -11.334 -42.834 -14.001 -78.501s-4 -73.834 -4 -114.501v-143zM630.999 179.999c65.333 8 105.001 36.666 119.001 85.999
c8 24.667 12.667 54.834 14 90.501s2 77.167 2 124.5c0 56 -0.333008 110.333 -1 163s-4.33398 88.667 -11.001 108c-6.66699 22 -20 39.667 -40 53s-47.667 21.333 -83 24v-649z" />
    <glyph glyph-name="afii10087" unicode="&#x445;" horiz-adv-x="755" 
d="M10 0l122 257.999l122 258l-234 496h248l111 -299h4c19.333 50.667 37.5 100.834 54.5 150.501s35.167 99.167 54.5 148.5h243l-233 -496l121.5 -258l119.5 -258h-243l-119 317h-6l-123 -317h-242z" />
    <glyph glyph-name="afii10088" unicode="&#x446;" horiz-adv-x="843" 
d="M90 0v1014h223v-811h193v811h223v-811h90v-439h-186v236h-543z" />
    <glyph glyph-name="afii10089" unicode="&#x447;" horiz-adv-x="772" 
d="M53 598l-0.000976562 414h223v-344c0 -68 29.667 -102.333 89 -103c32.667 0 68.667 11 108 33v414h219v-1012h-221v412c-16.667 -8 -34.5 -15.167 -53.5 -21.5s-37.667 -11.5 -56 -15.5s-35.333 -7.16699 -51 -9.5s-28.5 -3.5 -38.5 -3.5
c-69.333 0 -123.166 19.5 -161.499 58.5s-57.5 98.167 -57.5 177.5z" />
    <glyph glyph-name="afii10090" unicode="&#x448;" horiz-adv-x="1198" 
d="M92 0v1014h221v-811h174v811h224v-811h178v811h219v-1014h-1016z" />
    <glyph glyph-name="afii10091" unicode="&#x449;" horiz-adv-x="1241" 
d="M92 0v1014h221v-811h174v811h224v-811h176v811h221v-811h92v-420h-184v217h-924z" />
    <glyph glyph-name="afii10092" unicode="&#x44a;" horiz-adv-x="954" 
d="M23 815l0.000976562 199h481v-373h65c66.667 0 122.667 -7.5 168 -22.5s81.666 -36.5 108.999 -64.5s46.5 -61.5 57.5 -100.5s16.5 -81.5 16.5 -127.5c0 -108 -28 -189.333 -84 -244s-144.333 -82 -265 -82h-292v815h-256zM504.001 199h59
c54.667 0 91.167 12.5 109.5 37.5s27.5 54.167 27.5 87.5c0 35.333 -10.167 63.833 -30.5 85.5s-56.5 32.5 -108.5 32.5h-57v-243z" />
    <glyph glyph-name="afii10093" unicode="&#x44b;" horiz-adv-x="1132" 
d="M88 0v1014h225v-373h66c66.667 0 122.5 -7.5 167.5 -22.5s81.167 -36.5 108.5 -64.5s46.5 -61.5 57.5 -100.5s16.5 -81.5 16.5 -127.5c0 -217.333 -116 -326 -348 -326h-293zM313 199h60c54.667 0 91.167 12.5 109.5 37.5s27.5 54.167 27.5 87.5
c0 35.333 -10.167 63.833 -30.5 85.5s-56.5 32.5 -108.5 32.5h-58v-243zM811 0v1014h225v-1014h-225z" />
    <glyph glyph-name="afii10094" unicode="&#x44c;" horiz-adv-x="757" 
d="M86 0v1014h225v-373h68c66.667 0 122.5 -7.5 167.5 -22.5s81.167 -36.5 108.5 -64.5s46.5 -61.5 57.5 -100.5s16.5 -81.5 16.5 -127.5c0 -217.333 -116 -326 -348 -326h-295zM311 199h61.999c54.667 0 90.834 12.5 108.501 37.5s26.5 54.167 26.5 87.5
c0 35.333 -10.333 63.833 -31 85.5s-56.667 32.5 -108 32.5h-58v-243z" />
    <glyph glyph-name="afii10095" unicode="&#x44d;" horiz-adv-x="735" 
d="M43 274l221.001 27.002c4 -74 32.667 -111 86 -111c28.667 0 49.834 8.66699 63.501 26s23.167 39.666 28.5 66.999c4 16.667 6.5 37.5 7.5 62.5s1.5 50.5 1.5 76.5h-238v180h236c0 62.667 -4.33301 109.667 -13 141c-15.333 54.667 -43.333 82 -84 82
c-26 0 -46.833 -9.83301 -62.5 -29.5s-24.167 -49.167 -25.5 -88.5c-35.333 4 -71.5 8.33301 -108.5 13s-73.167 9.66699 -108.5 15c5.33301 91.333 35 163 89 215s131 78 231 78c79.333 0 139.666 -16.333 180.999 -49s71.666 -75 90.999 -127
c6.66699 -16.667 12.167 -38.667 16.5 -66s7.5 -56.666 9.5 -87.999s3.33301 -64.333 4 -99s1 -68.334 1 -101.001c0 -24.667 -0.333008 -51.667 -1 -81l-2 -86c-0.666992 -28 -2.5 -54.333 -5.5 -79s-6.5 -45.334 -10.5 -62.001
c-6.66699 -27.333 -17.167 -52.833 -31.5 -76.5s-33.5 -45.167 -57.5 -64.5s-53 -34.333 -87 -45s-74.333 -16 -121 -16c-98 0 -173.667 25.167 -227 75.5s-81.333 120.5 -84 210.5z" />
    <glyph glyph-name="afii10096" unicode="&#x44e;" horiz-adv-x="1087" 
d="M78 0l0.00195312 1012h223v-408h98c1.33301 52 4.83301 99.5 10.5 142.5s12.5 76.833 20.5 101.5c19.333 53.333 52.166 96 98.499 128s107.833 48 184.5 48c84.667 0 149.167 -17.667 193.5 -53s73.833 -80.333 88.5 -135c5.33301 -22 9.83301 -47 13.5 -75
s6.16699 -57.333 7.5 -88s2.33301 -61.334 3 -92.001s1 -59.667 1 -87v-17c0 -36.667 -0.666992 -74.167 -2 -112.5s-4 -75.166 -8 -110.499c-6.66699 -56 -20.667 -101.833 -42 -137.5s-46.666 -63 -75.999 -82s-61.5 -31.833 -96.5 -38.5s-68.833 -10 -101.5 -10
c-44 0 -81.5 5.66699 -112.5 17s-57.833 26.333 -80.5 45s-40.834 40.334 -54.501 65.001s-23.834 50.334 -30.501 77.001c-6.66699 26 -11.167 61.667 -13.5 107s-3.5 89 -3.5 131h-98v-428h-223zM610.002 462.998c0 -57.333 0.99707 -104.5 2.99707 -141.5
s8.66699 -65.5 20 -85.5c15.333 -28.667 41.333 -43 78 -43c20.667 0 38.667 6.33301 54 19s25.333 28.667 30 48c1.33301 5.33301 3 15.833 5 31.5s3.33301 34.5 4 56.5s1.33398 46 2.00098 72s1 52 1 78c0 48 -0.333008 94 -1 138s-3.66699 77.667 -9 101
c-5.33301 22 -14.166 41.5 -26.499 58.5s-32.166 25.5 -59.499 25.5c-22 0 -40.167 -7.16699 -54.5 -21.5s-24.833 -30.833 -31.5 -49.5c-5.33301 -18 -8.83301 -47.5 -10.5 -88.5s-3.16699 -89.5 -4.5 -145.5v-53z" />
    <glyph glyph-name="afii10097" unicode="&#x44f;" horiz-adv-x="792" 
d="M43 0l76 311.001c6.66699 31.333 17.5 60.666 32.5 87.999s36.167 49.333 63.5 66c-54.667 22 -92.167 54.167 -112.5 96.5s-30.5 88.5 -30.5 138.5c0 100 28.667 177.333 86 232s139 82 245 82h316v-1014h-223v408h-54c-32.667 0 -59.5 -11 -80.5 -33
s-38.5 -65.667 -52.5 -131l-51 -244h-215zM289 694.001c0 -35.333 12.168 -61.833 36.501 -79.5s57.166 -26.5 98.499 -26.5h72v233h-68c-44 0 -78.167 -10.5 -102.5 -31.5s-36.5 -52.833 -36.5 -95.5z" />
    <glyph glyph-name="afii10071" unicode="&#x451;" horiz-adv-x="770" 
d="M68 500c0 65.333 2.33203 130.831 6.99902 196.498s13.667 116.167 27 151.5c19.333 54.667 52.833 98.334 100.5 131.001s111.167 49 190.5 49c101.333 0 177.833 -28 229.5 -84s77.5 -135 77.5 -237v-252h-413c0 -38 0.333008 -74.833 1 -110.5
s3.66699 -63.167 9 -82.5c13.333 -46.667 43.333 -69.667 90 -69c54.667 0 85.334 38.667 92.001 116l221 -35c-5.33301 -90 -34.666 -160.167 -87.999 -210.5s-129 -75.5 -227 -75.5c-48 0 -89 5.83301 -123 17.5s-63 27 -87 46s-42.833 40.833 -56.5 65.5
s-23.834 49 -30.501 73c-4 16.667 -7.33301 37.334 -10 62.001s-4.66699 51 -6 79s-2.33301 56.667 -3 86s-1 57 -1 83zM130.999 1178v215h193v-215h-193zM288.999 605.998h188v86c0 32.667 -5.83301 62 -17.5 88s-35.834 39 -72.501 39
c-39.333 0 -66.666 -19.667 -81.999 -59c-5.33301 -12 -9 -31.333 -11 -58s-3.66699 -58.667 -5 -96zM466.999 1178v215h192v-215h-192z" />
    <glyph glyph-name="afii10099" unicode="&#x452;" horiz-adv-x="821" 
d="M0 1159v141.003h90v187h221v-187h262v-141h-262v-252c2.66699 0 4.33398 -0.333008 5.00098 -1s1.66699 -1 3 -1c18 27.333 45.833 51.666 83.5 72.999s76.167 32 115.5 32c52 0 95.333 -12.333 130 -37s59 -63 73 -115c4 -18 7.33301 -41.667 10 -71
s4.66699 -61.333 6 -96s2.33301 -70.5 3 -107.5s1 -71.167 1 -102.5v-80c0 -54.667 -1.33301 -108.834 -4 -162.501s-9.33398 -96.167 -20.001 -127.5c-18 -57.333 -48.5 -101.5 -91.5 -132.5s-99.167 -47.833 -168.5 -50.5h-43l-6 176c22 1.33301 39.667 5.16602 53 11.499
s23.5 13.166 30.5 20.499s11.5 15.5 13.5 24.5s3 16.833 3 23.5c1.33301 13.333 3 38.833 5 76.5s3 78.5 3 122.5c0 66.667 -0.333008 129.834 -1 189.501s-3 108.5 -7 146.5c-2.66699 24.667 -10.5 42 -23.5 52s-27.833 15 -44.5 15c-42 0 -74 -12.833 -96 -38.5
s-33 -62.5 -33 -110.5v-637h-221v1159h-90z" />
    <glyph glyph-name="afii10100" unicode="&#x453;" horiz-adv-x="694" 
d="M88 0v1014h571v-199h-348v-815h-223zM217 1176l174 362l182 -82l-237 -344z" />
    <glyph glyph-name="afii10101" unicode="&#x454;" horiz-adv-x="757" 
d="M84 500c0 32.667 0.671875 65.999 2.00488 99.999s3.33301 66.667 6 98s6.16699 60.666 10.5 87.999s9.83301 49.333 16.5 66c19.333 52 53.166 94.333 101.499 127s112.166 49 191.499 49c98 0 173 -24.5 225 -73.5s79.333 -118.833 82 -209.5l-221 -22
c-2.66699 34 -12.334 59.167 -29.001 75.5s-36.334 24.5 -59.001 24.5c-44 0 -73.333 -20.333 -88 -61c-6.66699 -13.333 -10.834 -33.833 -12.501 -61.5s-3.16699 -61.167 -4.5 -100.5h240v-178h-242c0 -31.333 0.666992 -61.666 2 -90.999s4.66602 -52.333 9.99902 -69
c6.66699 -22 17 -39 31 -51s34 -18 60 -18c27.333 0 48.833 8.83301 64.5 26.5s24.834 43.5 27.501 77.5l223 -31c-4 -86 -34 -153.833 -90 -203.5s-133.333 -74.5 -232 -74.5c-46.667 0 -87 5.83301 -121 17.5s-62.833 26.667 -86.5 45s-42.667 39.833 -57 64.5
s-25.166 49.667 -32.499 75c-4 16.667 -7.33301 37.334 -10 62.001s-4.33398 51 -5.00098 79l-2 86c-0.666992 29.333 -1 57 -1 83z" />
    <glyph glyph-name="afii10102" unicode="&#x455;" horiz-adv-x="743" 
d="M57 276l219.001 32.9971c-1.33301 -36.667 6.66699 -66 24 -88s41.666 -33 72.999 -33c32.667 0 57.167 9.33301 73.5 28s24.5 44.334 24.5 77.001c0 42 -7.5 71.667 -22.5 89s-42.833 33.333 -83.5 48c-45.333 16.667 -86.5 33.5 -123.5 50.5s-68 37 -93 60
s-44.333 50.333 -58 82s-20.5 69.834 -20.5 114.501c0 82 26.167 151 78.5 207s129.833 84 232.5 84c106.667 0 184.167 -26.667 232.5 -80s72.5 -125 72.5 -215l-217 -28c1.33301 36.667 -5.83398 65.834 -21.501 87.501s-38.5 32.5 -68.5 32.5
c-35.333 0 -59.166 -10.167 -71.499 -30.5s-18.5 -40.833 -18.5 -61.5c0 -27.333 6.5 -49.5 19.5 -66.5s43.167 -33.833 90.5 -50.5c50.667 -16.667 94.167 -33.667 130.5 -51s66 -38.333 89 -63s40 -53.667 51 -87s16.5 -73.333 16.5 -120c0 -44 -5.5 -84.333 -16.5 -121
s-29 -69 -54 -97s-57.333 -49.833 -97 -65.5s-88.167 -23.5 -145.5 -23.5c-100 0 -177 24.5 -231 73.5s-82.333 120.5 -85 214.5z" />
    <glyph glyph-name="afii10103" unicode="&#x456;" horiz-adv-x="417" 
d="M96 0v1012h223v-1012h-223zM96 1210v215h223v-215h-223z" />
    <glyph glyph-name="afii10104" unicode="&#x457;" horiz-adv-x="417" 
d="M-53 1163v215h192v-215h-192zM96 0v1012h223v-1012h-223zM283 1163v215h192v-215h-192z" />
    <glyph glyph-name="afii10105" unicode="&#x458;" horiz-adv-x="411" 
d="M-33 -195h33.001c39.333 0 65.166 11 77.499 33s18.5 59 18.5 111v1065h223v-1120c0 -94 -24.833 -167 -74.5 -219s-128.5 -78 -236.5 -78h-41v208zM96.001 1210v215h223v-215h-223z" />
    <glyph glyph-name="afii10106" unicode="&#x459;" horiz-adv-x="1175" 
d="M10 137c28.667 15.333 52.6689 30.5 72.002 45.5s34.666 32.333 45.999 52s19.833 43.5 25.5 71.5s8.5 63.333 8.5 106v600h559v-371h67c66.667 0 122.667 -7.83301 168 -23.5s81.666 -37.167 108.999 -64.5s46.5 -60.5 57.5 -99.5s16.5 -81.5 16.5 -127.5
c0 -217.333 -116 -326 -348 -326h-295v815h-134v-407c0 -70.667 -6.33301 -131 -19 -181s-31 -91.833 -55 -125.5s-53.5 -61 -88.5 -82s-74.167 -38.5 -117.5 -52.5zM721.002 199h61c52 0 88 12.167 108 36.5s30 53.833 30 88.5c0 35.333 -10.667 63.833 -32 85.5
s-58 32.5 -110 32.5h-57v-243z" />
    <glyph glyph-name="afii10107" unicode="&#x45a;" horiz-adv-x="1181" 
d="M92 0v1014h225v-383h183v383h227v-381h66c66.667 0 122.5 -7.5 167.5 -22.5s81.167 -35.833 108.5 -62.5s46.5 -58.834 57.5 -96.501s16.5 -79.5 16.5 -125.5c0 -217.333 -116 -326 -348 -326h-295v442h-183v-442h-225zM727 199.001l58.999 0.000976562
c54.667 0 91.334 12.5 110.001 37.5s28 54.167 28 87.5c0 35.333 -10.333 62.166 -31 80.499s-57 27.5 -109 27.5h-57v-233z" />
    <glyph glyph-name="afii10108" unicode="&#x45b;" horiz-adv-x="819" 
d="M0 1159v141h92v187h221v-187h260v-141h-260v-250l9 -2c20.667 28.667 48.667 53 84 73s72 30 110 30c42 0 76.833 -6.83301 104.5 -20.5s49.667 -32.5 66 -56.5s27.833 -52.333 34.5 -85s10 -67.667 10 -105v-743h-223v686c0 72.667 -31.333 109 -94 109
c-31.333 0 -56 -10 -74 -30s-27 -48.333 -27 -85v-680h-221v1159h-92z" />
    <glyph glyph-name="afii10109" unicode="&#x45c;" horiz-adv-x="806" 
d="M78 0v1010h221v-412h45c15.333 0 30.5 1.33301 45.5 4s29.333 9.16699 43 19.5s25.834 25.333 36.501 45s19.667 45.834 27 78.501l61 267h209l-35.5 -147.5l-34.5 -147.5c-10.667 -48 -28 -88.667 -52 -122s-53.667 -55.666 -89 -66.999v-4
c45.333 -10.667 78.5 -34.167 99.5 -70.5s37.833 -78.833 50.5 -127.5l79 -326h-217l-55 258c-6.66699 34 -14.5 61.333 -23.5 82s-19.667 36.334 -32 47.001s-26.333 18.167 -42 22.5s-33.834 6.5 -54.501 6.5h-61v-416h-221zM315 1176l174 362l183 -82l-238 -344z" />
    <glyph glyph-name="afii10110" unicode="&#x45e;" horiz-adv-x="735" 
d="M8 1012h235.998l63 -375l55 -295h9l55 295l74 375h227l-293 -1168c-19.333 -75.333 -49.666 -134 -90.999 -176s-101.666 -63 -180.999 -63h-78v194h45c30 0 54.5 10 73.5 30s35.5 58.667 49.5 116l14 63zM77.998 1407h161.999
c1.33301 -15.333 5.66602 -30.833 12.999 -46.5s16.833 -30.334 28.5 -44.001s25 -24.834 40 -33.501s32.167 -13 51.5 -13c20.667 0 38.834 4.33301 54.501 13s28.834 19.834 39.501 33.501s19.167 28.334 25.5 44.001s9.5 31.167 9.5 46.5h162
c-2.66699 -28.667 -10.167 -59.667 -22.5 -93s-30.5 -64 -54.5 -92s-53.5 -51.333 -88.5 -70s-76.833 -28 -125.5 -28c-53.333 0 -98.5 9.33301 -135.5 28s-67 42 -90 70s-40 58.667 -51 92s-17.167 64.333 -18.5 93z" />
    <glyph glyph-name="afii10193" unicode="&#x45f;" horiz-adv-x="823" 
d="M96 0v1012h223v-809h191v809h221v-1012h-225v-256h-189v256h-221z" />
    <glyph glyph-name="afii10050" unicode="&#x490;" horiz-adv-x="770" 
d="M106 0v1425h435v234h182v-442h-395v-1217h-222z" />
    <glyph glyph-name="afii10098" unicode="&#x491;" horiz-adv-x="694" 
d="M88 0v1012h391v235h180v-432h-350v-815h-221z" />
    <glyph glyph-name="afii10846" unicode="&#x4d9;" horiz-adv-x="770" 
d="M70 309l0.00292969 252.002h413c0 38 -0.666992 74.833 -2 110.5s-5.33301 63.167 -12 82.5c-13.333 46.667 -42.666 69.667 -87.999 69c-54.667 0 -84.667 -38.667 -90 -116l-221 34c5.33301 90 34.666 160.667 87.999 212s129.666 77 228.999 77
c46.667 0 87.334 -5.83301 122.001 -17.5s63.667 -27 87 -46s42.166 -40.833 56.499 -65.5s24.833 -50 31.5 -76c4 -16.667 7.33301 -37.167 10 -61.5s4.66699 -50.5 6 -78.5s2.5 -56.667 3.5 -86s1.5 -56.333 1.5 -81c0 -32.667 -0.833008 -66 -2.5 -100
s-3.83398 -66.833 -6.50098 -98.5s-6 -60.334 -10 -86.001s-9.33301 -47.5 -16 -65.5c-20.667 -54.667 -54.5 -98.334 -101.5 -131.001s-110.167 -49 -189.5 -49c-102.667 0 -179.834 28 -231.501 84s-77.5 135 -77.5 237zM293.003 324.002c0 -32.667 5.83301 -62 17.5 -88
s35.834 -39 72.501 -39c39.333 0 66.666 19.667 81.999 59c5.33301 12 9 31.333 11 58s3.66699 58.667 5 96h-188v-86z" />
    <glyph glyph-name="uni2000" unicode="&#x2000;" horiz-adv-x="912" 
 />
    <glyph glyph-name="uni2001" unicode="&#x2001;" horiz-adv-x="1825" 
 />
    <glyph glyph-name="uni2002" unicode="&#x2002;" horiz-adv-x="912" 
 />
    <glyph glyph-name="uni2003" unicode="&#x2003;" horiz-adv-x="1825" 
 />
    <glyph glyph-name="uni2004" unicode="&#x2004;" horiz-adv-x="608" 
 />
    <glyph glyph-name="uni2005" unicode="&#x2005;" horiz-adv-x="456" 
 />
    <glyph glyph-name="uni2006" unicode="&#x2006;" horiz-adv-x="304" 
 />
    <glyph glyph-name="uni2007" unicode="&#x2007;" horiz-adv-x="304" 
 />
    <glyph glyph-name="uni2008" unicode="&#x2008;" horiz-adv-x="228" 
 />
    <glyph glyph-name="uni2009" unicode="&#x2009;" horiz-adv-x="365" 
 />
    <glyph glyph-name="uni200A" unicode="&#x200a;" horiz-adv-x="101" 
 />
    <glyph glyph-name="uni2010" unicode="&#x2010;" horiz-adv-x="747" 
d="M100 479v193h570v-193h-570z" />
    <glyph glyph-name="uni2011" unicode="&#x2011;" horiz-adv-x="747" 
d="M100 479v193h570v-193h-570z" />
    <glyph glyph-name="figuredash" unicode="&#x2012;" horiz-adv-x="747" 
d="M100 479v193h570v-193h-570z" />
    <glyph glyph-name="endash" unicode="&#x2013;" horiz-adv-x="1024" 
d="M41 461v188h942v-188h-942z" />
    <glyph glyph-name="emdash" unicode="&#x2014;" horiz-adv-x="2048" 
d="M41 461v188h1966v-188h-1966z" />
    <glyph glyph-name="quoteleft" unicode="&#x2018;" horiz-adv-x="536" 
d="M145 924v252l113 272h123l-59 -268h51v-256h-228z" />
    <glyph glyph-name="quoteright" unicode="&#x2019;" horiz-adv-x="487" 
d="M135 926l58 266h-52v258h230v-252l-113 -272h-123z" />
    <glyph glyph-name="quotesinglbase" unicode="&#x201a;" horiz-adv-x="438" 
d="M98 -281l60 269h-54v258h230v-252l-113 -275h-123z" />
    <glyph glyph-name="quotedblleft" unicode="&#x201c;" horiz-adv-x="706" 
d="M92 924v252l115 272h123l-60 -268h52v-256h-230zM387 924v252l113 272h123l-58 -268h51v-256h-229z" />
    <glyph glyph-name="quotedblright" unicode="&#x201d;" horiz-adv-x="706" 
d="M94 926l60 266h-54v258h230v-252l-113 -272h-123zM389 926l57 266h-51v258h230v-252l-113 -272h-123z" />
    <glyph glyph-name="quotedblbase" unicode="&#x201e;" horiz-adv-x="720" 
d="M94 -279l60 269h-54v256h230v-252l-113 -273h-123zM389 -279l57 269h-51v256h230v-252l-113 -273h-123z" />
    <glyph glyph-name="dagger" unicode="&#x2020;" horiz-adv-x="770" 
d="M25 780v197h262v407h196v-407h260v-197h-260v-1095h-196v1095h-262z" />
    <glyph glyph-name="daggerdbl" unicode="&#x2021;" horiz-adv-x="770" 
d="M27 205v196h260v379h-260v199h260v405h196v-405h262v-199h-262v-379h262v-196h-262v-520h-196v520h-260z" />
    <glyph glyph-name="bullet" unicode="&#x2022;" horiz-adv-x="909" 
d="M180 553c0 39.333 7.5 76.833 22.5 112.5s35.5 66.5 61.5 92.5s56.833 46.5 92.5 61.5s73.167 22.5 112.5 22.5s76.833 -7.5 112.5 -22.5s66.834 -35.5 93.501 -61.5s47.5 -56.833 62.5 -92.5s22.5 -73.167 22.5 -112.5s-7.5 -76.833 -22.5 -112.5
s-35.833 -66.5 -62.5 -92.5s-57.834 -46.5 -93.501 -61.5s-73.167 -22.5 -112.5 -22.5s-76.833 7.5 -112.5 22.5s-66.5 35.5 -92.5 61.5s-46.5 56.833 -61.5 92.5s-22.5 73.167 -22.5 112.5z" />
    <glyph glyph-name="ellipsis" unicode="&#x2026;" horiz-adv-x="1439" 
d="M100 0v248h230v-248h-230zM608 0v248h228v-248h-228zM1116 0v248h227v-248h-227z" />
    <glyph glyph-name="uni202F" unicode="&#x202f;" horiz-adv-x="365" 
 />
    <glyph glyph-name="guilsinglleft" unicode="&#x2039;" horiz-adv-x="630" 
d="M96 492l230 395h211l-226 -395l226 -398h-211z" />
    <glyph glyph-name="guilsinglright" unicode="&#x203a;" horiz-adv-x="630" 
d="M94 94l225 398l-225 395h213l228 -395l-228 -398h-213z" />
    <glyph glyph-name="uni205F" unicode="&#x205f;" horiz-adv-x="456" 
 />
    <glyph glyph-name="Euro" unicode="&#x20ac;" 
d="M39 545l-0.000976562 120.996h76v102h-76v123h76v158c0 53.333 6.16699 103.833 18.5 151.5s32.5 88.834 60.5 123.501s63.833 62.334 107.5 83.001s96.834 31 159.501 31c116 0 201.667 -30.5 257 -91.5s82.333 -139.167 81 -234.5l-215 -37
c-2.66699 48 -14.334 85.667 -35.001 113s-50.667 41 -90 41c-24.667 0 -45.167 -5.5 -61.5 -16.5s-29.333 -24.667 -39 -41s-16.167 -34.5 -19.5 -54.5s-5 -38.667 -5 -56v-170h276v-123h-276v-102h276v-121h-276v-209c0 -15.333 1.33301 -31.166 4 -47.499
s8.5 -31.666 17.5 -45.999s21.333 -25.833 37 -34.5s35.834 -13 60.501 -13c78 0 119.667 52.333 125 157l221 -30c-4 -102.667 -34.667 -184 -92 -244s-139.333 -90 -246 -90c-118.667 0 -206 29.667 -262 89s-84 147 -84 263v205h-76z" />
    <glyph glyph-name="trademark" unicode="&#x2122;" horiz-adv-x="1433" 
d="M84 1282v143h498v-143h-172v-668h-154v668h-172zM662 612v810.999h141c19.333 -40.667 37.5 -81.5 54.5 -122.5l51.5 -122.5l80 -177l36.5 87.5c12.333 29.667 25.5 58.834 39.5 87.501l104 247h144v-811h-152v445h-6l-32.5 -90c-11 -30 -22.833 -60 -35.5 -90
c-6.66699 -19.333 -14.667 -39.333 -24 -60l-27 -59h-100l-27.5 61.5c-9 20.333 -17.5 40.833 -25.5 61.5l-35 89l-35 87h-6v-445h-145z" />
    <glyph glyph-name="lozenge" unicode="&#x25ca;" horiz-adv-x="1085" 
d="M96 649l47 92.5l62 120l69.5 133l69.5 133l61.5 120l47.5 91.5h155l353 -690l-355 -688h-153zM305 651l51 -100.5l64 -126l63.5 -125.5c20.333 -40.667 36.5 -74 48.5 -100l50 101l62 123.5l60.5 124l49.5 101.5l-226 455l-49.5 -101.5l-61.5 -125l-61.5 -125z" />
    <glyph glyph-name="uniE000" unicode="&#xe000;" horiz-adv-x="1013" 
d="M0 0v1014h1014v-1014h-1014z" />
    </font>
</defs>
</svg>
