<svg width="20" height="24" fill="none" xmlns="http://www.w3.org/2000/svg"><path d="M11.525 5.476a.937.937 0 01-.091-1.22l.091-.106 2.959-2.962a.962.962 0 01.83-.438c.315 0 .594.136.764.345l.066.094 2.959 2.962.09.105a.938.938 0 01.01 1.103l-.1.117-.105.092a.938.938 0 01-1.104.008l-.118-.1L16.25 3.95v4.73l-.009.111c-.062.4-.453.709-.928.709-.475 0-.868-.309-.93-.709l-.008-.112V3.95L12.85 5.476l-.105.092a.938.938 0 01-1.22-.092zm.004 13.048a.937.937 0 011.22-.091l.105.09 1.525 1.527v-4.73c0-.453.42-.82.937-.82.475 0 .867.309.929.709l.009.112v4.729l1.526-1.526a.937.937 0 011.221-.091l.105.09a.937.937 0 01.091 1.22l-.09.106-2.96 2.962a.963.963 0 01-.83.439.963.963 0 01-.83-.438L11.53 19.85a.939.939 0 010-1.326zM2.813 1.99A2.813 2.813 0 000 4.802v14.375a2.812 2.812 0 002.813 2.813h5a.938.938 0 000-1.875h-5a.938.938 0 01-.938-.938V4.802a.937.937 0 01.938-.937h5a.937.937 0 100-1.875h-5z" fill="#fff"/></svg>