<svg width="22" height="26" fill="none" xmlns="http://www.w3.org/2000/svg"><path d="M13.572 10.428a.782.782 0 001.106-1.106l-3.126-3.124a.78.78 0 00-1.104 0L7.322 9.322a.781.781 0 101.105 1.106l1.79-1.792V15.5a.781.781 0 101.563 0V8.636l1.791 1.792zM19.125 18l-6.305 6.694a2.5 2.5 0 01-3.64 0L2.875 18h.024l-.01-.012-.014-.016a10.576 10.576 0 01-2.5-6.847C.375 5.257 5.132.5 11 .5s10.625 4.757 10.625 10.625a10.577 10.577 0 01-2.5 6.847l-.013.015-.01.013h.023zm-1.214-1.012a9.02 9.02 0 002.151-5.863 9.063 9.063 0 00-18.124 0c0 2.238.808 4.283 2.151 5.863l.193.227 6.036 6.407a.939.939 0 001.364 0l6.036-6.407.193-.227z" fill="#fff"/></svg>