<svg width="28" height="24" fill="none" xmlns="http://www.w3.org/2000/svg"><path d="M26.805 7.253c.25 0 .46.089.635.266a.77.77 0 01.224.645v3.494H0V8.164c0-.253.087-.468.261-.645a.816.816 0 01.598-.266h12.245l6.683-6.76a.857.857 0 01.634-.265.74.74 0 01.598.266l1.232 1.253c.174.177.261.38.261.607 0 .228-.087.43-.261.608l-4.219 4.291h8.773zm-25.088 6.19h24.23L24.34 23.24c-.05.203-.149.38-.298.532a.753.753 0 01-.56.228H4.18a.71.71 0 01-.522-.228 1.479 1.479 0 01-.336-.532l-1.606-9.797z" fill="#fff"/></svg>