<svg width="23" height="22" fill="none" xmlns="http://www.w3.org/2000/svg"><path fill-rule="evenodd" clip-rule="evenodd" d="M11.294 1.375v2.69h11.192v-2.69H11.294zM0 1.375h2.788v2.716H0V1.375zm0 8.25v2.733h7.074V9.625H0zm15.53 0v2.721h7.04V9.625h-7.04zM0 17.875h11.32v2.698H0v-2.698zm19.765 0h2.823v2.696h-2.823v-2.696zm-4.281 4.18c1.535 0 2.835-1.13 2.835-2.585 0-1.457-1.3-2.97-2.835-2.97-1.534 0-2.716 1.321-2.716 2.777 0 1.457 1.182 2.778 2.716 2.778zm-4.322-8.315c1.486 0 2.968-1.398 2.968-2.854 0-1.456-1.482-2.636-2.969-2.636a2.736 2.736 0 00-1.905.775 2.595 2.595 0 00-.785 1.86c0 1.457 1.204 2.855 2.69 2.855zM7.138 5.474c1.495 0 2.775-1.382 2.775-2.838C9.913 1.18 8.437 0 6.942 0c-.718 0-1.406.278-1.914.772a2.602 2.602 0 00-.793 1.864c0 1.456 1.408 2.838 2.903 2.838z" fill="#fff"/></svg>