<svg width="20" height="16" fill="none" xmlns="http://www.w3.org/2000/svg"><path d="M10 16H0v-2h5.75A8.031 8.031 0 000 8.26C.64 8.1 1.31 8 2 8c4.42 0 8 3.58 8 8zm10-7.74C19.36 8.1 18.69 8 18 8c-2.93 0-5.48 1.58-6.88 3.93a9.82 9.82 0 01.87 4.07h8v-2h-5.75A8.061 8.061 0 0120 8.26zm-6.36-1.24a10.03 10.03 0 014.09-5C13.44 2.16 10 5.67 10 10v.02c.95-1.27 2.2-2.3 3.64-3zM9.42 4.85A8.527 8.527 0 004.7 0C6.14 1.86 7 4.18 7 6.71c0 .21-.03.41-.04.61.43.24.83.52 1.22.82a9.91 9.91 0 011.24-3.29z" fill="#fff"/></svg>