<svg width="28" height="28" fill="none" xmlns="http://www.w3.org/2000/svg"><path d="M22.703 11.666a1.168 1.168 0 00-.082 1.167c.29.676.494 1.385.607 2.112a9.33 9.33 0 01-.805 5.518 1.166 1.166 0 01-1.038.618H6.626a1.166 1.166 0 01-1.038-.63A9.333 9.333 0 0115.166 7.07c.848.1 1.677.32 2.462.653a1.167 1.167 0 001.167-.081 1.166 1.166 0 00-.199-2.054A11.667 11.667 0 003.908 22.166a2.333 2.333 0 002.007 1.167h16.158a2.333 2.333 0 002.03-1.166 11.666 11.666 0 00.642-10.372 1.167 1.167 0 00-2.042-.129z" fill="#fff"/><path d="M12.355 14.688a2.335 2.335 0 103.302 3.302l6.603-9.905-9.905 6.603z" fill="#fff"/></svg>