<svg width="25" height="25" fill="none" xmlns="http://www.w3.org/2000/svg"><path d="M18.75 21.875c-1.432 0-2.572.313-3.418.94-.846.627-1.27 1.355-1.27 2.185h-3.124c0-.83-.424-1.558-1.27-2.185-.846-.627-1.986-.94-3.418-.94-.407 0-.94.17-1.6.513-.658.341-1.167.691-1.525 1.05L0 20.313c1.156-.603 2.226-1.66 3.21-3.174.985-1.514 1.478-3.06 1.478-4.639 0-2.393-1.042-4.476-3.125-6.25l1.562-3.125a7.9 7.9 0 00.476.427c.204.171.582.403 1.135.696.554.293 1.058.44 1.514.44.96 0 1.807-.245 2.54-.733.731-.488 1.273-1.082 1.623-1.782A4.8 4.8 0 0010.937 0h3.126c0 .749.175 1.473.524 2.173.35.7.892 1.294 1.624 1.782.732.488 1.579.732 2.539.732.456 0 .944-.13 1.465-.39.52-.26.928-.521 1.22-.781l.44-.391 1.563 3.125c-2.084 1.774-3.125 3.857-3.125 6.25 0 1.579.492 3.125 1.477 4.639.984 1.513 2.054 2.571 3.21 3.174l-3.125 3.125a6.55 6.55 0 00-1.563-1.087c-.618-.317-1.139-.476-1.562-.476z" fill="#fff"/></svg>